M48
; DRILL file {KiCad 8.0.6} date 2024-11-09T22:39:53-0800
; FORMAT={-:-/ absolute / inch / decimal}
; #@! TF.CreationDate,2024-11-09T22:39:53-08:00
; #@! TF.GenerationSoftware,Kicad,Pcbnew,8.0.6
; #@! TF.FileFunction,Plated,1,2,PTH
FMAT,2
INCH
; #@! TA.AperFunction,Plated,PTH,ComponentDrill
T1C0.0390
; #@! TA.AperFunction,Plated,PTH,ComponentDrill
T2C0.0430
%
G90
G05
T1
X3.787Y-1.8898
X3.787Y-2.6378
X3.787Y-3.3858
X3.787Y-4.1339
X4.087Y-1.8898
X4.087Y-2.6378
X4.087Y-3.3858
X4.087Y-4.1339
X4.535Y-1.8898
X4.535Y-2.6378
X4.535Y-3.3858
X4.535Y-4.1339
X4.835Y-1.8898
X4.835Y-2.6378
X4.835Y-3.3858
X4.835Y-4.1339
X5.2831Y-1.6929
X5.2831Y-2.4409
X5.2831Y-3.189
X5.2831Y-3.937
X5.5831Y-1.6929
X5.5831Y-2.4409
X5.5831Y-3.189
X5.5831Y-3.937
X5.8539Y-4.7244
X6.0311Y-1.5748
X6.0311Y-2.3228
X6.0311Y-3.0709
X6.0311Y-3.8189
X6.1539Y-4.7244
X6.3311Y-1.5748
X6.3311Y-2.3228
X6.3311Y-3.0709
X6.3311Y-3.8189
X6.6148Y-4.7462
X6.7791Y-1.6929
X6.7791Y-2.4409
X6.7791Y-3.189
X6.7791Y-3.937
X6.9136Y-4.7724
X7.0791Y-1.6929
X7.0791Y-2.4409
X7.0791Y-3.189
X7.0791Y-3.937
X7.371Y-4.8326
X7.5272Y-1.811
X7.5272Y-2.5591
X7.5272Y-3.3071
X7.5272Y-4.0551
X7.6665Y-4.8847
X7.8272Y-1.811
X7.8272Y-2.5591
X7.8272Y-3.3071
X7.8272Y-4.0551
X8.1253Y-5.0206
X8.2752Y-1.9882
X8.2752Y-2.7362
X8.2752Y-3.4843
X8.2752Y-4.2323
X8.4034Y-5.1329
X8.5752Y-1.9882
X8.5752Y-2.7362
X8.5752Y-3.4843
X8.5752Y-4.2323
T2
X4.385Y-1.4972
X4.385Y-1.5972
X4.385Y-1.6972
X4.385Y-1.7972
X4.385Y-1.8972
X4.385Y-1.9972
X4.385Y-2.0972
X4.385Y-2.1972
X4.385Y-2.2972
X4.385Y-2.3972
X4.385Y-2.4972
X4.385Y-2.5972
X4.985Y-1.4972
X4.985Y-1.5972
X4.985Y-1.6972
X4.985Y-1.7972
X4.985Y-1.8972
X4.985Y-1.9972
X4.985Y-2.0972
X4.985Y-2.1972
X4.985Y-2.2972
X4.985Y-2.3972
X4.985Y-2.4972
X4.985Y-2.5972
M30
