%TF.GenerationSoftware,KiCad,Pcbnew,8.0.6*%
%TF.CreationDate,2024-11-09T22:39:55-08:00*%
%TF.ProjectId,altair,616c7461-6972-42e6-9b69-6361645f7063,v1.0.0*%
%TF.SameCoordinates,Original*%
%TF.FileFunction,Paste,Top*%
%TF.FilePolarity,Positive*%
%FSLAX46Y46*%
G04 Gerber Fmt 4.6, Leading zero omitted, Abs format (unit mm)*
G04 Created by KiCad (PCBNEW 8.0.6) date 2024-11-09 22:39:55*
%MOMM*%
%LPD*%
G01*
G04 APERTURE LIST*
G04 Aperture macros list*
%AMRotRect*
0 Rectangle, with rotation*
0 The origin of the aperture is its center*
0 $1 length*
0 $2 width*
0 $3 Rotation angle, in degrees counterclockwise*
0 Add horizontal line*
21,1,$1,$2,0,0,$3*%
G04 Aperture macros list end*
%ADD10R,0.900000X1.200000*%
%ADD11RotRect,0.900000X1.200000X355.000000*%
%ADD12RotRect,0.900000X1.200000X350.000000*%
%ADD13RotRect,0.900000X1.200000X338.000000*%
G04 APERTURE END LIST*
D10*
%TO.C,D1*%
X98350000Y-105000000D03*
X101650000Y-105000000D03*
%TD*%
%TO.C,D2*%
X98350000Y-86000000D03*
X101650000Y-86000000D03*
%TD*%
%TO.C,D3*%
X98350000Y-67000000D03*
X101650000Y-67000000D03*
%TD*%
%TO.C,D4*%
X98350000Y-48000000D03*
X101650000Y-48000000D03*
%TD*%
%TO.C,D5*%
X117350000Y-105000000D03*
X120650000Y-105000000D03*
%TD*%
%TO.C,D6*%
X117350000Y-86000000D03*
X120650000Y-86000000D03*
%TD*%
%TO.C,D7*%
X117350000Y-67000000D03*
X120650000Y-67000000D03*
%TD*%
%TO.C,D8*%
X117350000Y-48000000D03*
X120650000Y-48000000D03*
%TD*%
%TO.C,D9*%
X136350000Y-100000000D03*
X139650000Y-100000000D03*
%TD*%
%TO.C,D10*%
X136350000Y-81000000D03*
X139650000Y-81000000D03*
%TD*%
%TO.C,D11*%
X136350000Y-62000000D03*
X139650000Y-62000000D03*
%TD*%
%TO.C,D12*%
X136350000Y-43000000D03*
X139650000Y-43000000D03*
%TD*%
%TO.C,D13*%
X155350000Y-97000000D03*
X158650000Y-97000000D03*
%TD*%
%TO.C,D14*%
X155350000Y-78000000D03*
X158650000Y-78000000D03*
%TD*%
%TO.C,D15*%
X155350000Y-59000000D03*
X158650000Y-59000000D03*
%TD*%
%TO.C,D16*%
X155350000Y-40000000D03*
X158650000Y-40000000D03*
%TD*%
%TO.C,D17*%
X174350000Y-100000000D03*
X177650000Y-100000000D03*
%TD*%
%TO.C,D18*%
X174350000Y-81000000D03*
X177650000Y-81000000D03*
%TD*%
%TO.C,D19*%
X174350000Y-62000000D03*
X177650000Y-62000000D03*
%TD*%
%TO.C,D20*%
X174350000Y-43000000D03*
X177650000Y-43000000D03*
%TD*%
%TO.C,D21*%
X193350000Y-103000000D03*
X196650000Y-103000000D03*
%TD*%
%TO.C,D22*%
X193350000Y-84000000D03*
X196650000Y-84000000D03*
%TD*%
%TO.C,D23*%
X193350000Y-65000000D03*
X196650000Y-65000000D03*
%TD*%
%TO.C,D24*%
X193350000Y-46000000D03*
X196650000Y-46000000D03*
%TD*%
%TO.C,D25*%
X212350000Y-107500000D03*
X215650000Y-107500000D03*
%TD*%
%TO.C,D26*%
X212350000Y-88500000D03*
X215650000Y-88500000D03*
%TD*%
%TO.C,D27*%
X212350000Y-69500000D03*
X215650000Y-69500000D03*
%TD*%
%TO.C,D28*%
X212350000Y-50500000D03*
X215650000Y-50500000D03*
%TD*%
%TO.C,D29*%
X150850000Y-120000000D03*
X154150000Y-120000000D03*
%TD*%
D11*
%TO.C,D30*%
X170166849Y-120742972D03*
X173454291Y-121030586D03*
%TD*%
D12*
%TO.C,D31*%
X189351130Y-123123445D03*
X192600996Y-123696483D03*
%TD*%
D13*
%TO.C,D32*%
X208385152Y-128331258D03*
X211444858Y-129567460D03*
%TD*%
M02*
