%TF.GenerationSoftware,KiCad,Pcbnew,8.0.6*%
%TF.CreationDate,2024-11-09T22:39:55-08:00*%
%TF.ProjectId,altair,616c7461-6972-42e6-9b69-6361645f7063,v1.0.0*%
%TF.SameCoordinates,Original*%
%TF.FileFunction,Profile,NP*%
%FSLAX46Y46*%
G04 Gerber Fmt 4.6, Leading zero omitted, Abs format (unit mm)*
G04 Created by KiCad (PCBNEW 8.0.6) date 2024-11-09 22:39:55*
%MOMM*%
%LPD*%
G01*
G04 APERTURE LIST*
%TA.AperFunction,Profile*%
%ADD10C,0.150000*%
%TD*%
G04 APERTURE END LIST*
D10*
X91000000Y-110000000D02*
X128000000Y-110000000D01*
X90000000Y-109000000D02*
X90000000Y-34000000D01*
X91000000Y-33000000D02*
X127000000Y-33000000D01*
X129000000Y-109000000D02*
X129000000Y-106000000D01*
X130000000Y-105000000D02*
X141500000Y-105000000D01*
X129000000Y-28000000D02*
X146000000Y-28000000D01*
X128000000Y-29000000D02*
X128000000Y-32000000D01*
X167000000Y-27000000D02*
X167000000Y-26000000D01*
X166000000Y-25000000D02*
X148000000Y-25000000D01*
X147000000Y-26000000D02*
X147000000Y-27000000D01*
X186000000Y-30000000D02*
X186000000Y-29000000D01*
X168000000Y-28000000D02*
X185000000Y-28000000D01*
X205000000Y-34500000D02*
X205000000Y-32000000D01*
X187000000Y-31000000D02*
X204000000Y-31000000D01*
X214387975Y-112500000D02*
X223000000Y-112500000D01*
X224000000Y-111500000D02*
X224000000Y-36500000D01*
X206000000Y-35500000D02*
X223000000Y-35500000D01*
X143500000Y-125000000D02*
X161412678Y-125000000D01*
X142500000Y-124000000D02*
X142500000Y-106000000D01*
X161499834Y-125003805D02*
X180751649Y-126688121D01*
X180838142Y-126699508D02*
X198764077Y-129860334D01*
X198965035Y-129917958D02*
X216386627Y-136956737D01*
X217688417Y-136404160D02*
X224431336Y-119714851D01*
X223878758Y-118413060D02*
X214013368Y-114427184D01*
X129000000Y-109000000D02*
G75*
G02*
X128000000Y-110000000I-1000000J0D01*
G01*
X129000000Y-106000000D02*
G75*
G02*
X130000000Y-105000000I1000000J0D01*
G01*
X141500000Y-105000000D02*
G75*
G02*
X142500000Y-106000000I0J-1000000D01*
G01*
X143500000Y-125000000D02*
G75*
G02*
X142500000Y-124000000I0J1000000D01*
G01*
X161412678Y-125000000D02*
G75*
G02*
X161499834Y-125003805I0J-1000000D01*
G01*
X180751649Y-126688121D02*
G75*
G02*
X180838142Y-126699508I-87155J-996195D01*
G01*
X198764077Y-129860334D02*
G75*
G02*
X198965035Y-129917958I-173649J-984807D01*
G01*
X217688416Y-136404160D02*
G75*
G02*
X216386627Y-136956737I-927183J374606D01*
G01*
X223878759Y-118413060D02*
G75*
G02*
X224431336Y-119714851I-374607J-927184D01*
G01*
X214013368Y-114427184D02*
G75*
G02*
X214387975Y-112500000I374607J927184D01*
G01*
X224000000Y-111500000D02*
G75*
G02*
X223000000Y-112500000I-1000000J0D01*
G01*
X223000000Y-35500000D02*
G75*
G02*
X224000000Y-36500000I0J-1000000D01*
G01*
X206000000Y-35500000D02*
G75*
G02*
X205000000Y-34500000I0J1000000D01*
G01*
X204000000Y-31000000D02*
G75*
G02*
X205000000Y-32000000I0J-1000000D01*
G01*
X187000000Y-31000000D02*
G75*
G02*
X186000000Y-30000000I0J1000000D01*
G01*
X185000000Y-28000000D02*
G75*
G02*
X186000000Y-29000000I0J-1000000D01*
G01*
X168000000Y-28000000D02*
G75*
G02*
X167000000Y-27000000I0J1000000D01*
G01*
X166000000Y-25000000D02*
G75*
G02*
X167000000Y-26000000I0J-1000000D01*
G01*
X147000000Y-26000000D02*
G75*
G02*
X148000000Y-25000000I1000000J0D01*
G01*
X147000000Y-27000000D02*
G75*
G02*
X146000000Y-28000000I-1000000J0D01*
G01*
X128000000Y-29000000D02*
G75*
G02*
X129000000Y-28000000I1000000J0D01*
G01*
X128000000Y-32000000D02*
G75*
G02*
X127000000Y-33000000I-1000000J0D01*
G01*
X90000000Y-34000000D02*
G75*
G02*
X91000000Y-33000000I1000000J0D01*
G01*
X91000000Y-110000000D02*
G75*
G02*
X90000000Y-109000000I0J1000000D01*
G01*
M02*
