%TF.GenerationSoftware,KiCad,Pcbnew,8.0.6*%
%TF.CreationDate,2024-11-09T22:39:55-08:00*%
%TF.ProjectId,altair,616c7461-6972-42e6-9b69-6361645f7063,v1.0.0*%
%TF.SameCoordinates,Original*%
%TF.FileFunction,Legend,Bot*%
%TF.FilePolarity,Positive*%
%FSLAX46Y46*%
G04 Gerber Fmt 4.6, Leading zero omitted, Abs format (unit mm)*
G04 Created by KiCad (PCBNEW 8.0.6) date 2024-11-09 22:39:55*
%MOMM*%
%LPD*%
G01*
G04 APERTURE LIST*
%ADD10C,0.100000*%
%ADD11R,1.752600X1.752600*%
%ADD12C,1.752600*%
G04 APERTURE END LIST*
D10*
%TO.C,D1*%
X100250000Y-105000000D02*
X100750000Y-105000000D01*
X100250000Y-105400000D02*
X99650000Y-105000000D01*
X100250000Y-104600000D02*
X100250000Y-105400000D01*
X99650000Y-105000000D02*
X100250000Y-104600000D01*
X99650000Y-105000000D02*
X99650000Y-105550000D01*
X99650000Y-105000000D02*
X99650000Y-104450000D01*
X99250000Y-105000000D02*
X99650000Y-105000000D01*
%TO.C,D2*%
X100250000Y-86000000D02*
X100750000Y-86000000D01*
X100250000Y-86400000D02*
X99650000Y-86000000D01*
X100250000Y-85600000D02*
X100250000Y-86400000D01*
X99650000Y-86000000D02*
X100250000Y-85600000D01*
X99650000Y-86000000D02*
X99650000Y-86550000D01*
X99650000Y-86000000D02*
X99650000Y-85450000D01*
X99250000Y-86000000D02*
X99650000Y-86000000D01*
%TO.C,D3*%
X100250000Y-67000000D02*
X100750000Y-67000000D01*
X100250000Y-67400000D02*
X99650000Y-67000000D01*
X100250000Y-66600000D02*
X100250000Y-67400000D01*
X99650000Y-67000000D02*
X100250000Y-66600000D01*
X99650000Y-67000000D02*
X99650000Y-67550000D01*
X99650000Y-67000000D02*
X99650000Y-66450000D01*
X99250000Y-67000000D02*
X99650000Y-67000000D01*
%TO.C,D4*%
X100250000Y-48000000D02*
X100750000Y-48000000D01*
X100250000Y-48400000D02*
X99650000Y-48000000D01*
X100250000Y-47600000D02*
X100250000Y-48400000D01*
X99650000Y-48000000D02*
X100250000Y-47600000D01*
X99650000Y-48000000D02*
X99650000Y-48550000D01*
X99650000Y-48000000D02*
X99650000Y-47450000D01*
X99250000Y-48000000D02*
X99650000Y-48000000D01*
%TO.C,D5*%
X119250000Y-105000000D02*
X119750000Y-105000000D01*
X119250000Y-105400000D02*
X118650000Y-105000000D01*
X119250000Y-104600000D02*
X119250000Y-105400000D01*
X118650000Y-105000000D02*
X119250000Y-104600000D01*
X118650000Y-105000000D02*
X118650000Y-105550000D01*
X118650000Y-105000000D02*
X118650000Y-104450000D01*
X118250000Y-105000000D02*
X118650000Y-105000000D01*
%TO.C,D6*%
X119250000Y-86000000D02*
X119750000Y-86000000D01*
X119250000Y-86400000D02*
X118650000Y-86000000D01*
X119250000Y-85600000D02*
X119250000Y-86400000D01*
X118650000Y-86000000D02*
X119250000Y-85600000D01*
X118650000Y-86000000D02*
X118650000Y-86550000D01*
X118650000Y-86000000D02*
X118650000Y-85450000D01*
X118250000Y-86000000D02*
X118650000Y-86000000D01*
%TO.C,D7*%
X119250000Y-67000000D02*
X119750000Y-67000000D01*
X119250000Y-67400000D02*
X118650000Y-67000000D01*
X119250000Y-66600000D02*
X119250000Y-67400000D01*
X118650000Y-67000000D02*
X119250000Y-66600000D01*
X118650000Y-67000000D02*
X118650000Y-67550000D01*
X118650000Y-67000000D02*
X118650000Y-66450000D01*
X118250000Y-67000000D02*
X118650000Y-67000000D01*
%TO.C,D8*%
X119250000Y-48000000D02*
X119750000Y-48000000D01*
X119250000Y-48400000D02*
X118650000Y-48000000D01*
X119250000Y-47600000D02*
X119250000Y-48400000D01*
X118650000Y-48000000D02*
X119250000Y-47600000D01*
X118650000Y-48000000D02*
X118650000Y-48550000D01*
X118650000Y-48000000D02*
X118650000Y-47450000D01*
X118250000Y-48000000D02*
X118650000Y-48000000D01*
%TO.C,D9*%
X138250000Y-100000000D02*
X138750000Y-100000000D01*
X138250000Y-100400000D02*
X137650000Y-100000000D01*
X138250000Y-99600000D02*
X138250000Y-100400000D01*
X137650000Y-100000000D02*
X138250000Y-99600000D01*
X137650000Y-100000000D02*
X137650000Y-100550000D01*
X137650000Y-100000000D02*
X137650000Y-99450000D01*
X137250000Y-100000000D02*
X137650000Y-100000000D01*
%TO.C,D10*%
X138250000Y-81000000D02*
X138750000Y-81000000D01*
X138250000Y-81400000D02*
X137650000Y-81000000D01*
X138250000Y-80600000D02*
X138250000Y-81400000D01*
X137650000Y-81000000D02*
X138250000Y-80600000D01*
X137650000Y-81000000D02*
X137650000Y-81550000D01*
X137650000Y-81000000D02*
X137650000Y-80450000D01*
X137250000Y-81000000D02*
X137650000Y-81000000D01*
%TO.C,D11*%
X138250000Y-62000000D02*
X138750000Y-62000000D01*
X138250000Y-62400000D02*
X137650000Y-62000000D01*
X138250000Y-61600000D02*
X138250000Y-62400000D01*
X137650000Y-62000000D02*
X138250000Y-61600000D01*
X137650000Y-62000000D02*
X137650000Y-62550000D01*
X137650000Y-62000000D02*
X137650000Y-61450000D01*
X137250000Y-62000000D02*
X137650000Y-62000000D01*
%TO.C,D12*%
X138250000Y-43000000D02*
X138750000Y-43000000D01*
X138250000Y-43400000D02*
X137650000Y-43000000D01*
X138250000Y-42600000D02*
X138250000Y-43400000D01*
X137650000Y-43000000D02*
X138250000Y-42600000D01*
X137650000Y-43000000D02*
X137650000Y-43550000D01*
X137650000Y-43000000D02*
X137650000Y-42450000D01*
X137250000Y-43000000D02*
X137650000Y-43000000D01*
%TO.C,D13*%
X157250000Y-97000000D02*
X157750000Y-97000000D01*
X157250000Y-97400000D02*
X156650000Y-97000000D01*
X157250000Y-96600000D02*
X157250000Y-97400000D01*
X156650000Y-97000000D02*
X157250000Y-96600000D01*
X156650000Y-97000000D02*
X156650000Y-97550000D01*
X156650000Y-97000000D02*
X156650000Y-96450000D01*
X156250000Y-97000000D02*
X156650000Y-97000000D01*
%TO.C,D14*%
X157250000Y-78000000D02*
X157750000Y-78000000D01*
X157250000Y-78400000D02*
X156650000Y-78000000D01*
X157250000Y-77600000D02*
X157250000Y-78400000D01*
X156650000Y-78000000D02*
X157250000Y-77600000D01*
X156650000Y-78000000D02*
X156650000Y-78550000D01*
X156650000Y-78000000D02*
X156650000Y-77450000D01*
X156250000Y-78000000D02*
X156650000Y-78000000D01*
%TO.C,D15*%
X157250000Y-59000000D02*
X157750000Y-59000000D01*
X157250000Y-59400000D02*
X156650000Y-59000000D01*
X157250000Y-58600000D02*
X157250000Y-59400000D01*
X156650000Y-59000000D02*
X157250000Y-58600000D01*
X156650000Y-59000000D02*
X156650000Y-59550000D01*
X156650000Y-59000000D02*
X156650000Y-58450000D01*
X156250000Y-59000000D02*
X156650000Y-59000000D01*
%TO.C,D16*%
X157250000Y-40000000D02*
X157750000Y-40000000D01*
X157250000Y-40400000D02*
X156650000Y-40000000D01*
X157250000Y-39600000D02*
X157250000Y-40400000D01*
X156650000Y-40000000D02*
X157250000Y-39600000D01*
X156650000Y-40000000D02*
X156650000Y-40550000D01*
X156650000Y-40000000D02*
X156650000Y-39450000D01*
X156250000Y-40000000D02*
X156650000Y-40000000D01*
%TO.C,D17*%
X176250000Y-100000000D02*
X176750000Y-100000000D01*
X176250000Y-100400000D02*
X175650000Y-100000000D01*
X176250000Y-99600000D02*
X176250000Y-100400000D01*
X175650000Y-100000000D02*
X176250000Y-99600000D01*
X175650000Y-100000000D02*
X175650000Y-100550000D01*
X175650000Y-100000000D02*
X175650000Y-99450000D01*
X175250000Y-100000000D02*
X175650000Y-100000000D01*
%TO.C,D18*%
X176250000Y-81000000D02*
X176750000Y-81000000D01*
X176250000Y-81400000D02*
X175650000Y-81000000D01*
X176250000Y-80600000D02*
X176250000Y-81400000D01*
X175650000Y-81000000D02*
X176250000Y-80600000D01*
X175650000Y-81000000D02*
X175650000Y-81550000D01*
X175650000Y-81000000D02*
X175650000Y-80450000D01*
X175250000Y-81000000D02*
X175650000Y-81000000D01*
%TO.C,D19*%
X176250000Y-62000000D02*
X176750000Y-62000000D01*
X176250000Y-62400000D02*
X175650000Y-62000000D01*
X176250000Y-61600000D02*
X176250000Y-62400000D01*
X175650000Y-62000000D02*
X176250000Y-61600000D01*
X175650000Y-62000000D02*
X175650000Y-62550000D01*
X175650000Y-62000000D02*
X175650000Y-61450000D01*
X175250000Y-62000000D02*
X175650000Y-62000000D01*
%TO.C,D20*%
X176250000Y-43000000D02*
X176750000Y-43000000D01*
X176250000Y-43400000D02*
X175650000Y-43000000D01*
X176250000Y-42600000D02*
X176250000Y-43400000D01*
X175650000Y-43000000D02*
X176250000Y-42600000D01*
X175650000Y-43000000D02*
X175650000Y-43550000D01*
X175650000Y-43000000D02*
X175650000Y-42450000D01*
X175250000Y-43000000D02*
X175650000Y-43000000D01*
%TO.C,D21*%
X195250000Y-103000000D02*
X195750000Y-103000000D01*
X195250000Y-103400000D02*
X194650000Y-103000000D01*
X195250000Y-102600000D02*
X195250000Y-103400000D01*
X194650000Y-103000000D02*
X195250000Y-102600000D01*
X194650000Y-103000000D02*
X194650000Y-103550000D01*
X194650000Y-103000000D02*
X194650000Y-102450000D01*
X194250000Y-103000000D02*
X194650000Y-103000000D01*
%TO.C,D22*%
X195250000Y-84000000D02*
X195750000Y-84000000D01*
X195250000Y-84400000D02*
X194650000Y-84000000D01*
X195250000Y-83600000D02*
X195250000Y-84400000D01*
X194650000Y-84000000D02*
X195250000Y-83600000D01*
X194650000Y-84000000D02*
X194650000Y-84550000D01*
X194650000Y-84000000D02*
X194650000Y-83450000D01*
X194250000Y-84000000D02*
X194650000Y-84000000D01*
%TO.C,D23*%
X195250000Y-65000000D02*
X195750000Y-65000000D01*
X195250000Y-65400000D02*
X194650000Y-65000000D01*
X195250000Y-64600000D02*
X195250000Y-65400000D01*
X194650000Y-65000000D02*
X195250000Y-64600000D01*
X194650000Y-65000000D02*
X194650000Y-65550000D01*
X194650000Y-65000000D02*
X194650000Y-64450000D01*
X194250000Y-65000000D02*
X194650000Y-65000000D01*
%TO.C,D24*%
X195250000Y-46000000D02*
X195750000Y-46000000D01*
X195250000Y-46400000D02*
X194650000Y-46000000D01*
X195250000Y-45600000D02*
X195250000Y-46400000D01*
X194650000Y-46000000D02*
X195250000Y-45600000D01*
X194650000Y-46000000D02*
X194650000Y-46550000D01*
X194650000Y-46000000D02*
X194650000Y-45450000D01*
X194250000Y-46000000D02*
X194650000Y-46000000D01*
%TO.C,D25*%
X214250000Y-107500000D02*
X214750000Y-107500000D01*
X214250000Y-107900000D02*
X213650000Y-107500000D01*
X214250000Y-107100000D02*
X214250000Y-107900000D01*
X213650000Y-107500000D02*
X214250000Y-107100000D01*
X213650000Y-107500000D02*
X213650000Y-108050000D01*
X213650000Y-107500000D02*
X213650000Y-106950000D01*
X213250000Y-107500000D02*
X213650000Y-107500000D01*
%TO.C,D26*%
X214250000Y-88500000D02*
X214750000Y-88500000D01*
X214250000Y-88900000D02*
X213650000Y-88500000D01*
X214250000Y-88100000D02*
X214250000Y-88900000D01*
X213650000Y-88500000D02*
X214250000Y-88100000D01*
X213650000Y-88500000D02*
X213650000Y-89050000D01*
X213650000Y-88500000D02*
X213650000Y-87950000D01*
X213250000Y-88500000D02*
X213650000Y-88500000D01*
%TO.C,D27*%
X214250000Y-69500000D02*
X214750000Y-69500000D01*
X214250000Y-69900000D02*
X213650000Y-69500000D01*
X214250000Y-69100000D02*
X214250000Y-69900000D01*
X213650000Y-69500000D02*
X214250000Y-69100000D01*
X213650000Y-69500000D02*
X213650000Y-70050000D01*
X213650000Y-69500000D02*
X213650000Y-68950000D01*
X213250000Y-69500000D02*
X213650000Y-69500000D01*
%TO.C,D28*%
X214250000Y-50500000D02*
X214750000Y-50500000D01*
X214250000Y-50900000D02*
X213650000Y-50500000D01*
X214250000Y-50100000D02*
X214250000Y-50900000D01*
X213650000Y-50500000D02*
X214250000Y-50100000D01*
X213650000Y-50500000D02*
X213650000Y-51050000D01*
X213650000Y-50500000D02*
X213650000Y-49950000D01*
X213250000Y-50500000D02*
X213650000Y-50500000D01*
%TO.C,D29*%
X152750000Y-120000000D02*
X153250000Y-120000000D01*
X152750000Y-120400000D02*
X152150000Y-120000000D01*
X152750000Y-119600000D02*
X152750000Y-120400000D01*
X152150000Y-120000000D02*
X152750000Y-119600000D01*
X152150000Y-120000000D02*
X152150000Y-120550000D01*
X152150000Y-120000000D02*
X152150000Y-119450000D01*
X151750000Y-120000000D02*
X152150000Y-120000000D01*
%TO.C,D30*%
X172059619Y-120908568D02*
X172557716Y-120952146D01*
X172024756Y-121307046D02*
X171461902Y-120856274D01*
X172094481Y-120510090D02*
X172024756Y-121307046D01*
X171461902Y-120856274D02*
X172094481Y-120510090D01*
X171461902Y-120856274D02*
X171413966Y-121404182D01*
X171461902Y-120856274D02*
X171509838Y-120308367D01*
X171063424Y-120821412D02*
X171461902Y-120856274D01*
%TO.C,D31*%
X191222265Y-123453376D02*
X191714669Y-123540200D01*
X191152806Y-123847299D02*
X190631380Y-123349187D01*
X191291724Y-123059453D02*
X191152806Y-123847299D01*
X190631380Y-123349187D02*
X191291724Y-123059453D01*
X190631380Y-123349187D02*
X190535874Y-123890831D01*
X190631380Y-123349187D02*
X190726887Y-122807543D01*
X190237457Y-123279728D02*
X190631380Y-123349187D01*
%TO.C,D32*%
X210146801Y-129043011D02*
X210610393Y-129230314D01*
X209996958Y-129413884D02*
X209590491Y-128818247D01*
X210296644Y-128672137D02*
X209996958Y-129413884D01*
X209590491Y-128818247D02*
X210296644Y-128672137D01*
X209590491Y-128818247D02*
X209384457Y-129328198D01*
X209590491Y-128818247D02*
X209796524Y-128308296D01*
X209219617Y-128668404D02*
X209590491Y-128818247D01*
%TD*%
D11*
%TO.C,MCU1*%
X126620000Y-38030000D03*
D12*
X126620000Y-40570000D03*
X126620000Y-43110000D03*
X126620000Y-45650000D03*
X126620000Y-48190000D03*
X126620000Y-50730000D03*
X126620000Y-53270000D03*
X126620000Y-55810000D03*
X126620000Y-58350000D03*
X126620000Y-60890000D03*
X126620000Y-63430000D03*
X126620000Y-65970000D03*
X111380000Y-38030000D03*
X111380000Y-40570000D03*
X111380000Y-43110000D03*
X111380000Y-45650000D03*
X111380000Y-48190000D03*
X111380000Y-50730000D03*
X111380000Y-53270000D03*
X111380000Y-55810000D03*
X111380000Y-58350000D03*
X111380000Y-60890000D03*
X111380000Y-63430000D03*
X111380000Y-65970000D03*
%TD*%
M02*
