M48
; DRILL file {KiCad 8.0.6} date 2024-11-09T22:39:53-0800
; FORMAT={-:-/ absolute / inch / decimal}
; #@! TF.CreationDate,2024-11-09T22:39:53-08:00
; #@! TF.GenerationSoftware,Kicad,Pcbnew,8.0.6
; #@! TF.FileFunction,NonPlated,1,2,NPTH
FMAT,2
INCH
; #@! TA.AperFunction,NonPlated,NPTH,ComponentDrill
T1C0.0670
; #@! TA.AperFunction,NonPlated,NPTH,ComponentDrill
T2C0.1181
; #@! TA.AperFunction,NonPlated,NPTH,ComponentDrill
T3C0.1570
%
G90
G05
T1
X3.737Y-1.6929
X3.737Y-2.4409
X3.737Y-3.189
X3.737Y-3.937
X4.137Y-1.6929
X4.137Y-2.4409
X4.137Y-3.189
X4.137Y-3.937
X4.485Y-1.6929
X4.485Y-2.4409
X4.485Y-3.189
X4.485Y-3.937
X4.885Y-1.6929
X4.885Y-2.4409
X4.885Y-3.189
X4.885Y-3.937
X5.2331Y-1.4961
X5.2331Y-2.2441
X5.2331Y-2.9921
X5.2331Y-3.7402
X5.6331Y-1.4961
X5.6331Y-2.2441
X5.6331Y-2.9921
X5.6331Y-3.7402
X5.8039Y-4.5276
X5.9811Y-1.378
X5.9811Y-2.126
X5.9811Y-2.874
X5.9811Y-3.622
X6.2039Y-4.5276
X6.3811Y-1.378
X6.3811Y-2.126
X6.3811Y-2.874
X6.3811Y-3.622
X6.5821Y-4.5458
X6.7291Y-1.4961
X6.7291Y-2.2441
X6.7291Y-2.9921
X6.7291Y-3.7402
X6.9806Y-4.5807
X7.1291Y-1.4961
X7.1291Y-2.2441
X7.1291Y-2.9921
X7.1291Y-3.7402
X7.356Y-4.6301
X7.4772Y-1.6142
X7.4772Y-2.3622
X7.4772Y-3.1102
X7.4772Y-3.8583
X7.7499Y-4.6995
X7.8772Y-1.6142
X7.8772Y-2.3622
X7.8772Y-3.1102
X7.8772Y-3.8583
X8.1527Y-4.8193
X8.2252Y-1.7913
X8.2252Y-2.5394
X8.2252Y-3.2874
X8.2252Y-4.0354
X8.5235Y-4.9692
X8.6252Y-1.7913
X8.6252Y-2.5394
X8.6252Y-3.2874
X8.6252Y-4.0354
T2
X3.787Y-1.5929
X3.787Y-2.3409
X3.787Y-3.089
X3.787Y-3.837
X4.037Y-1.4929
X4.037Y-2.2409
X4.037Y-2.989
X4.037Y-3.737
X4.535Y-1.5929
X4.535Y-2.3409
X4.535Y-3.089
X4.535Y-3.837
X4.785Y-1.4929
X4.785Y-2.2409
X4.785Y-2.989
X4.785Y-3.737
X5.2831Y-1.3961
X5.2831Y-2.1441
X5.2831Y-2.8921
X5.2831Y-3.6402
X5.5331Y-1.2961
X5.5331Y-2.0441
X5.5331Y-2.7921
X5.5331Y-3.5402
X5.8539Y-4.4276
X6.0311Y-1.278
X6.0311Y-2.026
X6.0311Y-2.774
X6.0311Y-3.522
X6.1039Y-4.3276
X6.2811Y-1.178
X6.2811Y-1.926
X6.2811Y-2.674
X6.2811Y-3.422
X6.6406Y-4.4505
X6.7791Y-1.3961
X6.7791Y-2.1441
X6.7791Y-2.8921
X6.7791Y-3.6402
X6.8984Y-4.3727
X7.0291Y-1.2961
X7.0291Y-2.0441
X7.0291Y-2.7921
X7.0291Y-3.5402
X7.4226Y-4.5403
X7.5272Y-1.5142
X7.5272Y-2.2622
X7.5272Y-3.0102
X7.5272Y-3.7583
X7.6861Y-4.4852
X7.7772Y-1.4142
X7.7772Y-2.1622
X7.7772Y-2.9102
X7.7772Y-3.6583
X8.2365Y-4.7453
X8.2752Y-1.6913
X8.2752Y-2.4394
X8.2752Y-3.1874
X8.2752Y-3.9354
X8.5058Y-4.7463
X8.5252Y-1.5913
X8.5252Y-2.3394
X8.5252Y-3.0874
X8.5252Y-3.8354
T3
X3.937Y-1.6929
X3.937Y-2.4409
X3.937Y-3.189
X3.937Y-3.937
X4.685Y-1.6929
X4.685Y-2.4409
X4.685Y-3.189
X4.685Y-3.937
X5.4331Y-1.4961
X5.4331Y-2.2441
X5.4331Y-2.9921
X5.4331Y-3.7402
X6.0039Y-4.5276
X6.1811Y-1.378
X6.1811Y-2.126
X6.1811Y-2.874
X6.1811Y-3.622
X6.7814Y-4.5632
X6.9291Y-1.4961
X6.9291Y-2.2441
X6.9291Y-2.9921
X6.9291Y-3.7402
X7.5529Y-4.6648
X7.6772Y-1.6142
X7.6772Y-2.3622
X7.6772Y-3.1102
X7.6772Y-3.8583
X8.3381Y-4.8942
X8.4252Y-1.7913
X8.4252Y-2.5394
X8.4252Y-3.2874
X8.4252Y-4.0354
M30
