%TF.GenerationSoftware,KiCad,Pcbnew,8.0.6*%
%TF.CreationDate,2024-11-09T22:39:55-08:00*%
%TF.ProjectId,altair,616c7461-6972-42e6-9b69-6361645f7063,v1.0.0*%
%TF.SameCoordinates,Original*%
%TF.FileFunction,Legend,Top*%
%TF.FilePolarity,Positive*%
%FSLAX46Y46*%
G04 Gerber Fmt 4.6, Leading zero omitted, Abs format (unit mm)*
G04 Created by KiCad (PCBNEW 8.0.6) date 2024-11-09 22:39:55*
%MOMM*%
%LPD*%
G01*
G04 APERTURE LIST*
%ADD10C,0.150000*%
%ADD11C,0.100000*%
%ADD12R,1.752600X1.752600*%
%ADD13C,1.752600*%
G04 APERTURE END LIST*
D10*
X123247619Y-38392295D02*
X122980952Y-38011342D01*
X122790476Y-38392295D02*
X122790476Y-37592295D01*
X122790476Y-37592295D02*
X123095238Y-37592295D01*
X123095238Y-37592295D02*
X123171428Y-37630390D01*
X123171428Y-37630390D02*
X123209523Y-37668485D01*
X123209523Y-37668485D02*
X123247619Y-37744676D01*
X123247619Y-37744676D02*
X123247619Y-37858961D01*
X123247619Y-37858961D02*
X123209523Y-37935152D01*
X123209523Y-37935152D02*
X123171428Y-37973247D01*
X123171428Y-37973247D02*
X123095238Y-38011342D01*
X123095238Y-38011342D02*
X122790476Y-38011342D01*
X123552380Y-38163723D02*
X123933333Y-38163723D01*
X123476190Y-38392295D02*
X123742857Y-37592295D01*
X123742857Y-37592295D02*
X124009523Y-38392295D01*
X124199999Y-37592295D02*
X124390475Y-38392295D01*
X124390475Y-38392295D02*
X124542856Y-37820866D01*
X124542856Y-37820866D02*
X124695237Y-38392295D01*
X124695237Y-38392295D02*
X124885714Y-37592295D01*
X123190476Y-40170390D02*
X123114286Y-40132295D01*
X123114286Y-40132295D02*
X123000000Y-40132295D01*
X123000000Y-40132295D02*
X122885714Y-40170390D01*
X122885714Y-40170390D02*
X122809524Y-40246580D01*
X122809524Y-40246580D02*
X122771429Y-40322771D01*
X122771429Y-40322771D02*
X122733333Y-40475152D01*
X122733333Y-40475152D02*
X122733333Y-40589438D01*
X122733333Y-40589438D02*
X122771429Y-40741819D01*
X122771429Y-40741819D02*
X122809524Y-40818009D01*
X122809524Y-40818009D02*
X122885714Y-40894200D01*
X122885714Y-40894200D02*
X123000000Y-40932295D01*
X123000000Y-40932295D02*
X123076191Y-40932295D01*
X123076191Y-40932295D02*
X123190476Y-40894200D01*
X123190476Y-40894200D02*
X123228572Y-40856104D01*
X123228572Y-40856104D02*
X123228572Y-40589438D01*
X123228572Y-40589438D02*
X123076191Y-40589438D01*
X123571429Y-40932295D02*
X123571429Y-40132295D01*
X123571429Y-40132295D02*
X124028572Y-40932295D01*
X124028572Y-40932295D02*
X124028572Y-40132295D01*
X124409524Y-40932295D02*
X124409524Y-40132295D01*
X124409524Y-40132295D02*
X124600000Y-40132295D01*
X124600000Y-40132295D02*
X124714286Y-40170390D01*
X124714286Y-40170390D02*
X124790476Y-40246580D01*
X124790476Y-40246580D02*
X124828571Y-40322771D01*
X124828571Y-40322771D02*
X124866667Y-40475152D01*
X124866667Y-40475152D02*
X124866667Y-40589438D01*
X124866667Y-40589438D02*
X124828571Y-40741819D01*
X124828571Y-40741819D02*
X124790476Y-40818009D01*
X124790476Y-40818009D02*
X124714286Y-40894200D01*
X124714286Y-40894200D02*
X124600000Y-40932295D01*
X124600000Y-40932295D02*
X124409524Y-40932295D01*
X123361905Y-43472295D02*
X123095238Y-43091342D01*
X122904762Y-43472295D02*
X122904762Y-42672295D01*
X122904762Y-42672295D02*
X123209524Y-42672295D01*
X123209524Y-42672295D02*
X123285714Y-42710390D01*
X123285714Y-42710390D02*
X123323809Y-42748485D01*
X123323809Y-42748485D02*
X123361905Y-42824676D01*
X123361905Y-42824676D02*
X123361905Y-42938961D01*
X123361905Y-42938961D02*
X123323809Y-43015152D01*
X123323809Y-43015152D02*
X123285714Y-43053247D01*
X123285714Y-43053247D02*
X123209524Y-43091342D01*
X123209524Y-43091342D02*
X122904762Y-43091342D01*
X123666666Y-43434200D02*
X123780952Y-43472295D01*
X123780952Y-43472295D02*
X123971428Y-43472295D01*
X123971428Y-43472295D02*
X124047619Y-43434200D01*
X124047619Y-43434200D02*
X124085714Y-43396104D01*
X124085714Y-43396104D02*
X124123809Y-43319914D01*
X124123809Y-43319914D02*
X124123809Y-43243723D01*
X124123809Y-43243723D02*
X124085714Y-43167533D01*
X124085714Y-43167533D02*
X124047619Y-43129438D01*
X124047619Y-43129438D02*
X123971428Y-43091342D01*
X123971428Y-43091342D02*
X123819047Y-43053247D01*
X123819047Y-43053247D02*
X123742857Y-43015152D01*
X123742857Y-43015152D02*
X123704762Y-42977057D01*
X123704762Y-42977057D02*
X123666666Y-42900866D01*
X123666666Y-42900866D02*
X123666666Y-42824676D01*
X123666666Y-42824676D02*
X123704762Y-42748485D01*
X123704762Y-42748485D02*
X123742857Y-42710390D01*
X123742857Y-42710390D02*
X123819047Y-42672295D01*
X123819047Y-42672295D02*
X124009524Y-42672295D01*
X124009524Y-42672295D02*
X124123809Y-42710390D01*
X124352381Y-42672295D02*
X124809524Y-42672295D01*
X124580952Y-43472295D02*
X124580952Y-42672295D01*
X122733333Y-45212295D02*
X123000000Y-46012295D01*
X123000000Y-46012295D02*
X123266666Y-45212295D01*
X123990476Y-45936104D02*
X123952380Y-45974200D01*
X123952380Y-45974200D02*
X123838095Y-46012295D01*
X123838095Y-46012295D02*
X123761904Y-46012295D01*
X123761904Y-46012295D02*
X123647618Y-45974200D01*
X123647618Y-45974200D02*
X123571428Y-45898009D01*
X123571428Y-45898009D02*
X123533333Y-45821819D01*
X123533333Y-45821819D02*
X123495237Y-45669438D01*
X123495237Y-45669438D02*
X123495237Y-45555152D01*
X123495237Y-45555152D02*
X123533333Y-45402771D01*
X123533333Y-45402771D02*
X123571428Y-45326580D01*
X123571428Y-45326580D02*
X123647618Y-45250390D01*
X123647618Y-45250390D02*
X123761904Y-45212295D01*
X123761904Y-45212295D02*
X123838095Y-45212295D01*
X123838095Y-45212295D02*
X123952380Y-45250390D01*
X123952380Y-45250390D02*
X123990476Y-45288485D01*
X124790476Y-45936104D02*
X124752380Y-45974200D01*
X124752380Y-45974200D02*
X124638095Y-46012295D01*
X124638095Y-46012295D02*
X124561904Y-46012295D01*
X124561904Y-46012295D02*
X124447618Y-45974200D01*
X124447618Y-45974200D02*
X124371428Y-45898009D01*
X124371428Y-45898009D02*
X124333333Y-45821819D01*
X124333333Y-45821819D02*
X124295237Y-45669438D01*
X124295237Y-45669438D02*
X124295237Y-45555152D01*
X124295237Y-45555152D02*
X124333333Y-45402771D01*
X124333333Y-45402771D02*
X124371428Y-45326580D01*
X124371428Y-45326580D02*
X124447618Y-45250390D01*
X124447618Y-45250390D02*
X124561904Y-45212295D01*
X124561904Y-45212295D02*
X124638095Y-45212295D01*
X124638095Y-45212295D02*
X124752380Y-45250390D01*
X124752380Y-45250390D02*
X124790476Y-45288485D01*
X122828571Y-48552295D02*
X122828571Y-47752295D01*
X122828571Y-47752295D02*
X123133333Y-47752295D01*
X123133333Y-47752295D02*
X123209523Y-47790390D01*
X123209523Y-47790390D02*
X123247618Y-47828485D01*
X123247618Y-47828485D02*
X123285714Y-47904676D01*
X123285714Y-47904676D02*
X123285714Y-48018961D01*
X123285714Y-48018961D02*
X123247618Y-48095152D01*
X123247618Y-48095152D02*
X123209523Y-48133247D01*
X123209523Y-48133247D02*
X123133333Y-48171342D01*
X123133333Y-48171342D02*
X122828571Y-48171342D01*
X123590475Y-47828485D02*
X123628571Y-47790390D01*
X123628571Y-47790390D02*
X123704761Y-47752295D01*
X123704761Y-47752295D02*
X123895237Y-47752295D01*
X123895237Y-47752295D02*
X123971428Y-47790390D01*
X123971428Y-47790390D02*
X124009523Y-47828485D01*
X124009523Y-47828485D02*
X124047618Y-47904676D01*
X124047618Y-47904676D02*
X124047618Y-47980866D01*
X124047618Y-47980866D02*
X124009523Y-48095152D01*
X124009523Y-48095152D02*
X123552380Y-48552295D01*
X123552380Y-48552295D02*
X124047618Y-48552295D01*
X124809523Y-48552295D02*
X124352380Y-48552295D01*
X124580952Y-48552295D02*
X124580952Y-47752295D01*
X124580952Y-47752295D02*
X124504761Y-47866580D01*
X124504761Y-47866580D02*
X124428571Y-47942771D01*
X124428571Y-47942771D02*
X124352380Y-47980866D01*
X122828571Y-51092295D02*
X122828571Y-50292295D01*
X122828571Y-50292295D02*
X123133333Y-50292295D01*
X123133333Y-50292295D02*
X123209523Y-50330390D01*
X123209523Y-50330390D02*
X123247618Y-50368485D01*
X123247618Y-50368485D02*
X123285714Y-50444676D01*
X123285714Y-50444676D02*
X123285714Y-50558961D01*
X123285714Y-50558961D02*
X123247618Y-50635152D01*
X123247618Y-50635152D02*
X123209523Y-50673247D01*
X123209523Y-50673247D02*
X123133333Y-50711342D01*
X123133333Y-50711342D02*
X122828571Y-50711342D01*
X123590475Y-50368485D02*
X123628571Y-50330390D01*
X123628571Y-50330390D02*
X123704761Y-50292295D01*
X123704761Y-50292295D02*
X123895237Y-50292295D01*
X123895237Y-50292295D02*
X123971428Y-50330390D01*
X123971428Y-50330390D02*
X124009523Y-50368485D01*
X124009523Y-50368485D02*
X124047618Y-50444676D01*
X124047618Y-50444676D02*
X124047618Y-50520866D01*
X124047618Y-50520866D02*
X124009523Y-50635152D01*
X124009523Y-50635152D02*
X123552380Y-51092295D01*
X123552380Y-51092295D02*
X124047618Y-51092295D01*
X124542857Y-50292295D02*
X124619047Y-50292295D01*
X124619047Y-50292295D02*
X124695238Y-50330390D01*
X124695238Y-50330390D02*
X124733333Y-50368485D01*
X124733333Y-50368485D02*
X124771428Y-50444676D01*
X124771428Y-50444676D02*
X124809523Y-50597057D01*
X124809523Y-50597057D02*
X124809523Y-50787533D01*
X124809523Y-50787533D02*
X124771428Y-50939914D01*
X124771428Y-50939914D02*
X124733333Y-51016104D01*
X124733333Y-51016104D02*
X124695238Y-51054200D01*
X124695238Y-51054200D02*
X124619047Y-51092295D01*
X124619047Y-51092295D02*
X124542857Y-51092295D01*
X124542857Y-51092295D02*
X124466666Y-51054200D01*
X124466666Y-51054200D02*
X124428571Y-51016104D01*
X124428571Y-51016104D02*
X124390476Y-50939914D01*
X124390476Y-50939914D02*
X124352380Y-50787533D01*
X124352380Y-50787533D02*
X124352380Y-50597057D01*
X124352380Y-50597057D02*
X124390476Y-50444676D01*
X124390476Y-50444676D02*
X124428571Y-50368485D01*
X124428571Y-50368485D02*
X124466666Y-50330390D01*
X124466666Y-50330390D02*
X124542857Y-50292295D01*
X122828571Y-53632295D02*
X122828571Y-52832295D01*
X122828571Y-52832295D02*
X123133333Y-52832295D01*
X123133333Y-52832295D02*
X123209523Y-52870390D01*
X123209523Y-52870390D02*
X123247618Y-52908485D01*
X123247618Y-52908485D02*
X123285714Y-52984676D01*
X123285714Y-52984676D02*
X123285714Y-53098961D01*
X123285714Y-53098961D02*
X123247618Y-53175152D01*
X123247618Y-53175152D02*
X123209523Y-53213247D01*
X123209523Y-53213247D02*
X123133333Y-53251342D01*
X123133333Y-53251342D02*
X122828571Y-53251342D01*
X124047618Y-53632295D02*
X123590475Y-53632295D01*
X123819047Y-53632295D02*
X123819047Y-52832295D01*
X123819047Y-52832295D02*
X123742856Y-52946580D01*
X123742856Y-52946580D02*
X123666666Y-53022771D01*
X123666666Y-53022771D02*
X123590475Y-53060866D01*
X124428571Y-53632295D02*
X124580952Y-53632295D01*
X124580952Y-53632295D02*
X124657142Y-53594200D01*
X124657142Y-53594200D02*
X124695238Y-53556104D01*
X124695238Y-53556104D02*
X124771428Y-53441819D01*
X124771428Y-53441819D02*
X124809523Y-53289438D01*
X124809523Y-53289438D02*
X124809523Y-52984676D01*
X124809523Y-52984676D02*
X124771428Y-52908485D01*
X124771428Y-52908485D02*
X124733333Y-52870390D01*
X124733333Y-52870390D02*
X124657142Y-52832295D01*
X124657142Y-52832295D02*
X124504761Y-52832295D01*
X124504761Y-52832295D02*
X124428571Y-52870390D01*
X124428571Y-52870390D02*
X124390476Y-52908485D01*
X124390476Y-52908485D02*
X124352380Y-52984676D01*
X124352380Y-52984676D02*
X124352380Y-53175152D01*
X124352380Y-53175152D02*
X124390476Y-53251342D01*
X124390476Y-53251342D02*
X124428571Y-53289438D01*
X124428571Y-53289438D02*
X124504761Y-53327533D01*
X124504761Y-53327533D02*
X124657142Y-53327533D01*
X124657142Y-53327533D02*
X124733333Y-53289438D01*
X124733333Y-53289438D02*
X124771428Y-53251342D01*
X124771428Y-53251342D02*
X124809523Y-53175152D01*
X122828571Y-56172295D02*
X122828571Y-55372295D01*
X122828571Y-55372295D02*
X123133333Y-55372295D01*
X123133333Y-55372295D02*
X123209523Y-55410390D01*
X123209523Y-55410390D02*
X123247618Y-55448485D01*
X123247618Y-55448485D02*
X123285714Y-55524676D01*
X123285714Y-55524676D02*
X123285714Y-55638961D01*
X123285714Y-55638961D02*
X123247618Y-55715152D01*
X123247618Y-55715152D02*
X123209523Y-55753247D01*
X123209523Y-55753247D02*
X123133333Y-55791342D01*
X123133333Y-55791342D02*
X122828571Y-55791342D01*
X124047618Y-56172295D02*
X123590475Y-56172295D01*
X123819047Y-56172295D02*
X123819047Y-55372295D01*
X123819047Y-55372295D02*
X123742856Y-55486580D01*
X123742856Y-55486580D02*
X123666666Y-55562771D01*
X123666666Y-55562771D02*
X123590475Y-55600866D01*
X124504761Y-55715152D02*
X124428571Y-55677057D01*
X124428571Y-55677057D02*
X124390476Y-55638961D01*
X124390476Y-55638961D02*
X124352380Y-55562771D01*
X124352380Y-55562771D02*
X124352380Y-55524676D01*
X124352380Y-55524676D02*
X124390476Y-55448485D01*
X124390476Y-55448485D02*
X124428571Y-55410390D01*
X124428571Y-55410390D02*
X124504761Y-55372295D01*
X124504761Y-55372295D02*
X124657142Y-55372295D01*
X124657142Y-55372295D02*
X124733333Y-55410390D01*
X124733333Y-55410390D02*
X124771428Y-55448485D01*
X124771428Y-55448485D02*
X124809523Y-55524676D01*
X124809523Y-55524676D02*
X124809523Y-55562771D01*
X124809523Y-55562771D02*
X124771428Y-55638961D01*
X124771428Y-55638961D02*
X124733333Y-55677057D01*
X124733333Y-55677057D02*
X124657142Y-55715152D01*
X124657142Y-55715152D02*
X124504761Y-55715152D01*
X124504761Y-55715152D02*
X124428571Y-55753247D01*
X124428571Y-55753247D02*
X124390476Y-55791342D01*
X124390476Y-55791342D02*
X124352380Y-55867533D01*
X124352380Y-55867533D02*
X124352380Y-56019914D01*
X124352380Y-56019914D02*
X124390476Y-56096104D01*
X124390476Y-56096104D02*
X124428571Y-56134200D01*
X124428571Y-56134200D02*
X124504761Y-56172295D01*
X124504761Y-56172295D02*
X124657142Y-56172295D01*
X124657142Y-56172295D02*
X124733333Y-56134200D01*
X124733333Y-56134200D02*
X124771428Y-56096104D01*
X124771428Y-56096104D02*
X124809523Y-56019914D01*
X124809523Y-56019914D02*
X124809523Y-55867533D01*
X124809523Y-55867533D02*
X124771428Y-55791342D01*
X124771428Y-55791342D02*
X124733333Y-55753247D01*
X124733333Y-55753247D02*
X124657142Y-55715152D01*
X122828571Y-58712295D02*
X122828571Y-57912295D01*
X122828571Y-57912295D02*
X123133333Y-57912295D01*
X123133333Y-57912295D02*
X123209523Y-57950390D01*
X123209523Y-57950390D02*
X123247618Y-57988485D01*
X123247618Y-57988485D02*
X123285714Y-58064676D01*
X123285714Y-58064676D02*
X123285714Y-58178961D01*
X123285714Y-58178961D02*
X123247618Y-58255152D01*
X123247618Y-58255152D02*
X123209523Y-58293247D01*
X123209523Y-58293247D02*
X123133333Y-58331342D01*
X123133333Y-58331342D02*
X122828571Y-58331342D01*
X124047618Y-58712295D02*
X123590475Y-58712295D01*
X123819047Y-58712295D02*
X123819047Y-57912295D01*
X123819047Y-57912295D02*
X123742856Y-58026580D01*
X123742856Y-58026580D02*
X123666666Y-58102771D01*
X123666666Y-58102771D02*
X123590475Y-58140866D01*
X124771428Y-57912295D02*
X124390476Y-57912295D01*
X124390476Y-57912295D02*
X124352380Y-58293247D01*
X124352380Y-58293247D02*
X124390476Y-58255152D01*
X124390476Y-58255152D02*
X124466666Y-58217057D01*
X124466666Y-58217057D02*
X124657142Y-58217057D01*
X124657142Y-58217057D02*
X124733333Y-58255152D01*
X124733333Y-58255152D02*
X124771428Y-58293247D01*
X124771428Y-58293247D02*
X124809523Y-58369438D01*
X124809523Y-58369438D02*
X124809523Y-58559914D01*
X124809523Y-58559914D02*
X124771428Y-58636104D01*
X124771428Y-58636104D02*
X124733333Y-58674200D01*
X124733333Y-58674200D02*
X124657142Y-58712295D01*
X124657142Y-58712295D02*
X124466666Y-58712295D01*
X124466666Y-58712295D02*
X124390476Y-58674200D01*
X124390476Y-58674200D02*
X124352380Y-58636104D01*
X122828571Y-61252295D02*
X122828571Y-60452295D01*
X122828571Y-60452295D02*
X123133333Y-60452295D01*
X123133333Y-60452295D02*
X123209523Y-60490390D01*
X123209523Y-60490390D02*
X123247618Y-60528485D01*
X123247618Y-60528485D02*
X123285714Y-60604676D01*
X123285714Y-60604676D02*
X123285714Y-60718961D01*
X123285714Y-60718961D02*
X123247618Y-60795152D01*
X123247618Y-60795152D02*
X123209523Y-60833247D01*
X123209523Y-60833247D02*
X123133333Y-60871342D01*
X123133333Y-60871342D02*
X122828571Y-60871342D01*
X124047618Y-61252295D02*
X123590475Y-61252295D01*
X123819047Y-61252295D02*
X123819047Y-60452295D01*
X123819047Y-60452295D02*
X123742856Y-60566580D01*
X123742856Y-60566580D02*
X123666666Y-60642771D01*
X123666666Y-60642771D02*
X123590475Y-60680866D01*
X124733333Y-60718961D02*
X124733333Y-61252295D01*
X124542857Y-60414200D02*
X124352380Y-60985628D01*
X124352380Y-60985628D02*
X124847619Y-60985628D01*
X122828571Y-63792295D02*
X122828571Y-62992295D01*
X122828571Y-62992295D02*
X123133333Y-62992295D01*
X123133333Y-62992295D02*
X123209523Y-63030390D01*
X123209523Y-63030390D02*
X123247618Y-63068485D01*
X123247618Y-63068485D02*
X123285714Y-63144676D01*
X123285714Y-63144676D02*
X123285714Y-63258961D01*
X123285714Y-63258961D02*
X123247618Y-63335152D01*
X123247618Y-63335152D02*
X123209523Y-63373247D01*
X123209523Y-63373247D02*
X123133333Y-63411342D01*
X123133333Y-63411342D02*
X122828571Y-63411342D01*
X124047618Y-63792295D02*
X123590475Y-63792295D01*
X123819047Y-63792295D02*
X123819047Y-62992295D01*
X123819047Y-62992295D02*
X123742856Y-63106580D01*
X123742856Y-63106580D02*
X123666666Y-63182771D01*
X123666666Y-63182771D02*
X123590475Y-63220866D01*
X124733333Y-62992295D02*
X124580952Y-62992295D01*
X124580952Y-62992295D02*
X124504761Y-63030390D01*
X124504761Y-63030390D02*
X124466666Y-63068485D01*
X124466666Y-63068485D02*
X124390476Y-63182771D01*
X124390476Y-63182771D02*
X124352380Y-63335152D01*
X124352380Y-63335152D02*
X124352380Y-63639914D01*
X124352380Y-63639914D02*
X124390476Y-63716104D01*
X124390476Y-63716104D02*
X124428571Y-63754200D01*
X124428571Y-63754200D02*
X124504761Y-63792295D01*
X124504761Y-63792295D02*
X124657142Y-63792295D01*
X124657142Y-63792295D02*
X124733333Y-63754200D01*
X124733333Y-63754200D02*
X124771428Y-63716104D01*
X124771428Y-63716104D02*
X124809523Y-63639914D01*
X124809523Y-63639914D02*
X124809523Y-63449438D01*
X124809523Y-63449438D02*
X124771428Y-63373247D01*
X124771428Y-63373247D02*
X124733333Y-63335152D01*
X124733333Y-63335152D02*
X124657142Y-63297057D01*
X124657142Y-63297057D02*
X124504761Y-63297057D01*
X124504761Y-63297057D02*
X124428571Y-63335152D01*
X124428571Y-63335152D02*
X124390476Y-63373247D01*
X124390476Y-63373247D02*
X124352380Y-63449438D01*
X122828571Y-66332295D02*
X122828571Y-65532295D01*
X122828571Y-65532295D02*
X123133333Y-65532295D01*
X123133333Y-65532295D02*
X123209523Y-65570390D01*
X123209523Y-65570390D02*
X123247618Y-65608485D01*
X123247618Y-65608485D02*
X123285714Y-65684676D01*
X123285714Y-65684676D02*
X123285714Y-65798961D01*
X123285714Y-65798961D02*
X123247618Y-65875152D01*
X123247618Y-65875152D02*
X123209523Y-65913247D01*
X123209523Y-65913247D02*
X123133333Y-65951342D01*
X123133333Y-65951342D02*
X122828571Y-65951342D01*
X124047618Y-66332295D02*
X123590475Y-66332295D01*
X123819047Y-66332295D02*
X123819047Y-65532295D01*
X123819047Y-65532295D02*
X123742856Y-65646580D01*
X123742856Y-65646580D02*
X123666666Y-65722771D01*
X123666666Y-65722771D02*
X123590475Y-65760866D01*
X124542857Y-65532295D02*
X124619047Y-65532295D01*
X124619047Y-65532295D02*
X124695238Y-65570390D01*
X124695238Y-65570390D02*
X124733333Y-65608485D01*
X124733333Y-65608485D02*
X124771428Y-65684676D01*
X124771428Y-65684676D02*
X124809523Y-65837057D01*
X124809523Y-65837057D02*
X124809523Y-66027533D01*
X124809523Y-66027533D02*
X124771428Y-66179914D01*
X124771428Y-66179914D02*
X124733333Y-66256104D01*
X124733333Y-66256104D02*
X124695238Y-66294200D01*
X124695238Y-66294200D02*
X124619047Y-66332295D01*
X124619047Y-66332295D02*
X124542857Y-66332295D01*
X124542857Y-66332295D02*
X124466666Y-66294200D01*
X124466666Y-66294200D02*
X124428571Y-66256104D01*
X124428571Y-66256104D02*
X124390476Y-66179914D01*
X124390476Y-66179914D02*
X124352380Y-66027533D01*
X124352380Y-66027533D02*
X124352380Y-65837057D01*
X124352380Y-65837057D02*
X124390476Y-65684676D01*
X124390476Y-65684676D02*
X124428571Y-65608485D01*
X124428571Y-65608485D02*
X124466666Y-65570390D01*
X124466666Y-65570390D02*
X124542857Y-65532295D01*
X113228571Y-38392295D02*
X113228571Y-37592295D01*
X113228571Y-37592295D02*
X113533333Y-37592295D01*
X113533333Y-37592295D02*
X113609523Y-37630390D01*
X113609523Y-37630390D02*
X113647618Y-37668485D01*
X113647618Y-37668485D02*
X113685714Y-37744676D01*
X113685714Y-37744676D02*
X113685714Y-37858961D01*
X113685714Y-37858961D02*
X113647618Y-37935152D01*
X113647618Y-37935152D02*
X113609523Y-37973247D01*
X113609523Y-37973247D02*
X113533333Y-38011342D01*
X113533333Y-38011342D02*
X113228571Y-38011342D01*
X114180952Y-37592295D02*
X114257142Y-37592295D01*
X114257142Y-37592295D02*
X114333333Y-37630390D01*
X114333333Y-37630390D02*
X114371428Y-37668485D01*
X114371428Y-37668485D02*
X114409523Y-37744676D01*
X114409523Y-37744676D02*
X114447618Y-37897057D01*
X114447618Y-37897057D02*
X114447618Y-38087533D01*
X114447618Y-38087533D02*
X114409523Y-38239914D01*
X114409523Y-38239914D02*
X114371428Y-38316104D01*
X114371428Y-38316104D02*
X114333333Y-38354200D01*
X114333333Y-38354200D02*
X114257142Y-38392295D01*
X114257142Y-38392295D02*
X114180952Y-38392295D01*
X114180952Y-38392295D02*
X114104761Y-38354200D01*
X114104761Y-38354200D02*
X114066666Y-38316104D01*
X114066666Y-38316104D02*
X114028571Y-38239914D01*
X114028571Y-38239914D02*
X113990475Y-38087533D01*
X113990475Y-38087533D02*
X113990475Y-37897057D01*
X113990475Y-37897057D02*
X114028571Y-37744676D01*
X114028571Y-37744676D02*
X114066666Y-37668485D01*
X114066666Y-37668485D02*
X114104761Y-37630390D01*
X114104761Y-37630390D02*
X114180952Y-37592295D01*
X115209523Y-38392295D02*
X114752380Y-38392295D01*
X114980952Y-38392295D02*
X114980952Y-37592295D01*
X114980952Y-37592295D02*
X114904761Y-37706580D01*
X114904761Y-37706580D02*
X114828571Y-37782771D01*
X114828571Y-37782771D02*
X114752380Y-37820866D01*
X113228571Y-40932295D02*
X113228571Y-40132295D01*
X113228571Y-40132295D02*
X113533333Y-40132295D01*
X113533333Y-40132295D02*
X113609523Y-40170390D01*
X113609523Y-40170390D02*
X113647618Y-40208485D01*
X113647618Y-40208485D02*
X113685714Y-40284676D01*
X113685714Y-40284676D02*
X113685714Y-40398961D01*
X113685714Y-40398961D02*
X113647618Y-40475152D01*
X113647618Y-40475152D02*
X113609523Y-40513247D01*
X113609523Y-40513247D02*
X113533333Y-40551342D01*
X113533333Y-40551342D02*
X113228571Y-40551342D01*
X114180952Y-40132295D02*
X114257142Y-40132295D01*
X114257142Y-40132295D02*
X114333333Y-40170390D01*
X114333333Y-40170390D02*
X114371428Y-40208485D01*
X114371428Y-40208485D02*
X114409523Y-40284676D01*
X114409523Y-40284676D02*
X114447618Y-40437057D01*
X114447618Y-40437057D02*
X114447618Y-40627533D01*
X114447618Y-40627533D02*
X114409523Y-40779914D01*
X114409523Y-40779914D02*
X114371428Y-40856104D01*
X114371428Y-40856104D02*
X114333333Y-40894200D01*
X114333333Y-40894200D02*
X114257142Y-40932295D01*
X114257142Y-40932295D02*
X114180952Y-40932295D01*
X114180952Y-40932295D02*
X114104761Y-40894200D01*
X114104761Y-40894200D02*
X114066666Y-40856104D01*
X114066666Y-40856104D02*
X114028571Y-40779914D01*
X114028571Y-40779914D02*
X113990475Y-40627533D01*
X113990475Y-40627533D02*
X113990475Y-40437057D01*
X113990475Y-40437057D02*
X114028571Y-40284676D01*
X114028571Y-40284676D02*
X114066666Y-40208485D01*
X114066666Y-40208485D02*
X114104761Y-40170390D01*
X114104761Y-40170390D02*
X114180952Y-40132295D01*
X114942857Y-40132295D02*
X115019047Y-40132295D01*
X115019047Y-40132295D02*
X115095238Y-40170390D01*
X115095238Y-40170390D02*
X115133333Y-40208485D01*
X115133333Y-40208485D02*
X115171428Y-40284676D01*
X115171428Y-40284676D02*
X115209523Y-40437057D01*
X115209523Y-40437057D02*
X115209523Y-40627533D01*
X115209523Y-40627533D02*
X115171428Y-40779914D01*
X115171428Y-40779914D02*
X115133333Y-40856104D01*
X115133333Y-40856104D02*
X115095238Y-40894200D01*
X115095238Y-40894200D02*
X115019047Y-40932295D01*
X115019047Y-40932295D02*
X114942857Y-40932295D01*
X114942857Y-40932295D02*
X114866666Y-40894200D01*
X114866666Y-40894200D02*
X114828571Y-40856104D01*
X114828571Y-40856104D02*
X114790476Y-40779914D01*
X114790476Y-40779914D02*
X114752380Y-40627533D01*
X114752380Y-40627533D02*
X114752380Y-40437057D01*
X114752380Y-40437057D02*
X114790476Y-40284676D01*
X114790476Y-40284676D02*
X114828571Y-40208485D01*
X114828571Y-40208485D02*
X114866666Y-40170390D01*
X114866666Y-40170390D02*
X114942857Y-40132295D01*
X113590476Y-42710390D02*
X113514286Y-42672295D01*
X113514286Y-42672295D02*
X113400000Y-42672295D01*
X113400000Y-42672295D02*
X113285714Y-42710390D01*
X113285714Y-42710390D02*
X113209524Y-42786580D01*
X113209524Y-42786580D02*
X113171429Y-42862771D01*
X113171429Y-42862771D02*
X113133333Y-43015152D01*
X113133333Y-43015152D02*
X113133333Y-43129438D01*
X113133333Y-43129438D02*
X113171429Y-43281819D01*
X113171429Y-43281819D02*
X113209524Y-43358009D01*
X113209524Y-43358009D02*
X113285714Y-43434200D01*
X113285714Y-43434200D02*
X113400000Y-43472295D01*
X113400000Y-43472295D02*
X113476191Y-43472295D01*
X113476191Y-43472295D02*
X113590476Y-43434200D01*
X113590476Y-43434200D02*
X113628572Y-43396104D01*
X113628572Y-43396104D02*
X113628572Y-43129438D01*
X113628572Y-43129438D02*
X113476191Y-43129438D01*
X113971429Y-43472295D02*
X113971429Y-42672295D01*
X113971429Y-42672295D02*
X114428572Y-43472295D01*
X114428572Y-43472295D02*
X114428572Y-42672295D01*
X114809524Y-43472295D02*
X114809524Y-42672295D01*
X114809524Y-42672295D02*
X115000000Y-42672295D01*
X115000000Y-42672295D02*
X115114286Y-42710390D01*
X115114286Y-42710390D02*
X115190476Y-42786580D01*
X115190476Y-42786580D02*
X115228571Y-42862771D01*
X115228571Y-42862771D02*
X115266667Y-43015152D01*
X115266667Y-43015152D02*
X115266667Y-43129438D01*
X115266667Y-43129438D02*
X115228571Y-43281819D01*
X115228571Y-43281819D02*
X115190476Y-43358009D01*
X115190476Y-43358009D02*
X115114286Y-43434200D01*
X115114286Y-43434200D02*
X115000000Y-43472295D01*
X115000000Y-43472295D02*
X114809524Y-43472295D01*
X113590476Y-45250390D02*
X113514286Y-45212295D01*
X113514286Y-45212295D02*
X113400000Y-45212295D01*
X113400000Y-45212295D02*
X113285714Y-45250390D01*
X113285714Y-45250390D02*
X113209524Y-45326580D01*
X113209524Y-45326580D02*
X113171429Y-45402771D01*
X113171429Y-45402771D02*
X113133333Y-45555152D01*
X113133333Y-45555152D02*
X113133333Y-45669438D01*
X113133333Y-45669438D02*
X113171429Y-45821819D01*
X113171429Y-45821819D02*
X113209524Y-45898009D01*
X113209524Y-45898009D02*
X113285714Y-45974200D01*
X113285714Y-45974200D02*
X113400000Y-46012295D01*
X113400000Y-46012295D02*
X113476191Y-46012295D01*
X113476191Y-46012295D02*
X113590476Y-45974200D01*
X113590476Y-45974200D02*
X113628572Y-45936104D01*
X113628572Y-45936104D02*
X113628572Y-45669438D01*
X113628572Y-45669438D02*
X113476191Y-45669438D01*
X113971429Y-46012295D02*
X113971429Y-45212295D01*
X113971429Y-45212295D02*
X114428572Y-46012295D01*
X114428572Y-46012295D02*
X114428572Y-45212295D01*
X114809524Y-46012295D02*
X114809524Y-45212295D01*
X114809524Y-45212295D02*
X115000000Y-45212295D01*
X115000000Y-45212295D02*
X115114286Y-45250390D01*
X115114286Y-45250390D02*
X115190476Y-45326580D01*
X115190476Y-45326580D02*
X115228571Y-45402771D01*
X115228571Y-45402771D02*
X115266667Y-45555152D01*
X115266667Y-45555152D02*
X115266667Y-45669438D01*
X115266667Y-45669438D02*
X115228571Y-45821819D01*
X115228571Y-45821819D02*
X115190476Y-45898009D01*
X115190476Y-45898009D02*
X115114286Y-45974200D01*
X115114286Y-45974200D02*
X115000000Y-46012295D01*
X115000000Y-46012295D02*
X114809524Y-46012295D01*
X113228571Y-48552295D02*
X113228571Y-47752295D01*
X113228571Y-47752295D02*
X113533333Y-47752295D01*
X113533333Y-47752295D02*
X113609523Y-47790390D01*
X113609523Y-47790390D02*
X113647618Y-47828485D01*
X113647618Y-47828485D02*
X113685714Y-47904676D01*
X113685714Y-47904676D02*
X113685714Y-48018961D01*
X113685714Y-48018961D02*
X113647618Y-48095152D01*
X113647618Y-48095152D02*
X113609523Y-48133247D01*
X113609523Y-48133247D02*
X113533333Y-48171342D01*
X113533333Y-48171342D02*
X113228571Y-48171342D01*
X114180952Y-47752295D02*
X114257142Y-47752295D01*
X114257142Y-47752295D02*
X114333333Y-47790390D01*
X114333333Y-47790390D02*
X114371428Y-47828485D01*
X114371428Y-47828485D02*
X114409523Y-47904676D01*
X114409523Y-47904676D02*
X114447618Y-48057057D01*
X114447618Y-48057057D02*
X114447618Y-48247533D01*
X114447618Y-48247533D02*
X114409523Y-48399914D01*
X114409523Y-48399914D02*
X114371428Y-48476104D01*
X114371428Y-48476104D02*
X114333333Y-48514200D01*
X114333333Y-48514200D02*
X114257142Y-48552295D01*
X114257142Y-48552295D02*
X114180952Y-48552295D01*
X114180952Y-48552295D02*
X114104761Y-48514200D01*
X114104761Y-48514200D02*
X114066666Y-48476104D01*
X114066666Y-48476104D02*
X114028571Y-48399914D01*
X114028571Y-48399914D02*
X113990475Y-48247533D01*
X113990475Y-48247533D02*
X113990475Y-48057057D01*
X113990475Y-48057057D02*
X114028571Y-47904676D01*
X114028571Y-47904676D02*
X114066666Y-47828485D01*
X114066666Y-47828485D02*
X114104761Y-47790390D01*
X114104761Y-47790390D02*
X114180952Y-47752295D01*
X114752380Y-47828485D02*
X114790476Y-47790390D01*
X114790476Y-47790390D02*
X114866666Y-47752295D01*
X114866666Y-47752295D02*
X115057142Y-47752295D01*
X115057142Y-47752295D02*
X115133333Y-47790390D01*
X115133333Y-47790390D02*
X115171428Y-47828485D01*
X115171428Y-47828485D02*
X115209523Y-47904676D01*
X115209523Y-47904676D02*
X115209523Y-47980866D01*
X115209523Y-47980866D02*
X115171428Y-48095152D01*
X115171428Y-48095152D02*
X114714285Y-48552295D01*
X114714285Y-48552295D02*
X115209523Y-48552295D01*
X113228571Y-51092295D02*
X113228571Y-50292295D01*
X113228571Y-50292295D02*
X113533333Y-50292295D01*
X113533333Y-50292295D02*
X113609523Y-50330390D01*
X113609523Y-50330390D02*
X113647618Y-50368485D01*
X113647618Y-50368485D02*
X113685714Y-50444676D01*
X113685714Y-50444676D02*
X113685714Y-50558961D01*
X113685714Y-50558961D02*
X113647618Y-50635152D01*
X113647618Y-50635152D02*
X113609523Y-50673247D01*
X113609523Y-50673247D02*
X113533333Y-50711342D01*
X113533333Y-50711342D02*
X113228571Y-50711342D01*
X114180952Y-50292295D02*
X114257142Y-50292295D01*
X114257142Y-50292295D02*
X114333333Y-50330390D01*
X114333333Y-50330390D02*
X114371428Y-50368485D01*
X114371428Y-50368485D02*
X114409523Y-50444676D01*
X114409523Y-50444676D02*
X114447618Y-50597057D01*
X114447618Y-50597057D02*
X114447618Y-50787533D01*
X114447618Y-50787533D02*
X114409523Y-50939914D01*
X114409523Y-50939914D02*
X114371428Y-51016104D01*
X114371428Y-51016104D02*
X114333333Y-51054200D01*
X114333333Y-51054200D02*
X114257142Y-51092295D01*
X114257142Y-51092295D02*
X114180952Y-51092295D01*
X114180952Y-51092295D02*
X114104761Y-51054200D01*
X114104761Y-51054200D02*
X114066666Y-51016104D01*
X114066666Y-51016104D02*
X114028571Y-50939914D01*
X114028571Y-50939914D02*
X113990475Y-50787533D01*
X113990475Y-50787533D02*
X113990475Y-50597057D01*
X113990475Y-50597057D02*
X114028571Y-50444676D01*
X114028571Y-50444676D02*
X114066666Y-50368485D01*
X114066666Y-50368485D02*
X114104761Y-50330390D01*
X114104761Y-50330390D02*
X114180952Y-50292295D01*
X114714285Y-50292295D02*
X115209523Y-50292295D01*
X115209523Y-50292295D02*
X114942857Y-50597057D01*
X114942857Y-50597057D02*
X115057142Y-50597057D01*
X115057142Y-50597057D02*
X115133333Y-50635152D01*
X115133333Y-50635152D02*
X115171428Y-50673247D01*
X115171428Y-50673247D02*
X115209523Y-50749438D01*
X115209523Y-50749438D02*
X115209523Y-50939914D01*
X115209523Y-50939914D02*
X115171428Y-51016104D01*
X115171428Y-51016104D02*
X115133333Y-51054200D01*
X115133333Y-51054200D02*
X115057142Y-51092295D01*
X115057142Y-51092295D02*
X114828571Y-51092295D01*
X114828571Y-51092295D02*
X114752380Y-51054200D01*
X114752380Y-51054200D02*
X114714285Y-51016104D01*
X113228571Y-53632295D02*
X113228571Y-52832295D01*
X113228571Y-52832295D02*
X113533333Y-52832295D01*
X113533333Y-52832295D02*
X113609523Y-52870390D01*
X113609523Y-52870390D02*
X113647618Y-52908485D01*
X113647618Y-52908485D02*
X113685714Y-52984676D01*
X113685714Y-52984676D02*
X113685714Y-53098961D01*
X113685714Y-53098961D02*
X113647618Y-53175152D01*
X113647618Y-53175152D02*
X113609523Y-53213247D01*
X113609523Y-53213247D02*
X113533333Y-53251342D01*
X113533333Y-53251342D02*
X113228571Y-53251342D01*
X114180952Y-52832295D02*
X114257142Y-52832295D01*
X114257142Y-52832295D02*
X114333333Y-52870390D01*
X114333333Y-52870390D02*
X114371428Y-52908485D01*
X114371428Y-52908485D02*
X114409523Y-52984676D01*
X114409523Y-52984676D02*
X114447618Y-53137057D01*
X114447618Y-53137057D02*
X114447618Y-53327533D01*
X114447618Y-53327533D02*
X114409523Y-53479914D01*
X114409523Y-53479914D02*
X114371428Y-53556104D01*
X114371428Y-53556104D02*
X114333333Y-53594200D01*
X114333333Y-53594200D02*
X114257142Y-53632295D01*
X114257142Y-53632295D02*
X114180952Y-53632295D01*
X114180952Y-53632295D02*
X114104761Y-53594200D01*
X114104761Y-53594200D02*
X114066666Y-53556104D01*
X114066666Y-53556104D02*
X114028571Y-53479914D01*
X114028571Y-53479914D02*
X113990475Y-53327533D01*
X113990475Y-53327533D02*
X113990475Y-53137057D01*
X113990475Y-53137057D02*
X114028571Y-52984676D01*
X114028571Y-52984676D02*
X114066666Y-52908485D01*
X114066666Y-52908485D02*
X114104761Y-52870390D01*
X114104761Y-52870390D02*
X114180952Y-52832295D01*
X115133333Y-53098961D02*
X115133333Y-53632295D01*
X114942857Y-52794200D02*
X114752380Y-53365628D01*
X114752380Y-53365628D02*
X115247619Y-53365628D01*
X113228571Y-56172295D02*
X113228571Y-55372295D01*
X113228571Y-55372295D02*
X113533333Y-55372295D01*
X113533333Y-55372295D02*
X113609523Y-55410390D01*
X113609523Y-55410390D02*
X113647618Y-55448485D01*
X113647618Y-55448485D02*
X113685714Y-55524676D01*
X113685714Y-55524676D02*
X113685714Y-55638961D01*
X113685714Y-55638961D02*
X113647618Y-55715152D01*
X113647618Y-55715152D02*
X113609523Y-55753247D01*
X113609523Y-55753247D02*
X113533333Y-55791342D01*
X113533333Y-55791342D02*
X113228571Y-55791342D01*
X114180952Y-55372295D02*
X114257142Y-55372295D01*
X114257142Y-55372295D02*
X114333333Y-55410390D01*
X114333333Y-55410390D02*
X114371428Y-55448485D01*
X114371428Y-55448485D02*
X114409523Y-55524676D01*
X114409523Y-55524676D02*
X114447618Y-55677057D01*
X114447618Y-55677057D02*
X114447618Y-55867533D01*
X114447618Y-55867533D02*
X114409523Y-56019914D01*
X114409523Y-56019914D02*
X114371428Y-56096104D01*
X114371428Y-56096104D02*
X114333333Y-56134200D01*
X114333333Y-56134200D02*
X114257142Y-56172295D01*
X114257142Y-56172295D02*
X114180952Y-56172295D01*
X114180952Y-56172295D02*
X114104761Y-56134200D01*
X114104761Y-56134200D02*
X114066666Y-56096104D01*
X114066666Y-56096104D02*
X114028571Y-56019914D01*
X114028571Y-56019914D02*
X113990475Y-55867533D01*
X113990475Y-55867533D02*
X113990475Y-55677057D01*
X113990475Y-55677057D02*
X114028571Y-55524676D01*
X114028571Y-55524676D02*
X114066666Y-55448485D01*
X114066666Y-55448485D02*
X114104761Y-55410390D01*
X114104761Y-55410390D02*
X114180952Y-55372295D01*
X115171428Y-55372295D02*
X114790476Y-55372295D01*
X114790476Y-55372295D02*
X114752380Y-55753247D01*
X114752380Y-55753247D02*
X114790476Y-55715152D01*
X114790476Y-55715152D02*
X114866666Y-55677057D01*
X114866666Y-55677057D02*
X115057142Y-55677057D01*
X115057142Y-55677057D02*
X115133333Y-55715152D01*
X115133333Y-55715152D02*
X115171428Y-55753247D01*
X115171428Y-55753247D02*
X115209523Y-55829438D01*
X115209523Y-55829438D02*
X115209523Y-56019914D01*
X115209523Y-56019914D02*
X115171428Y-56096104D01*
X115171428Y-56096104D02*
X115133333Y-56134200D01*
X115133333Y-56134200D02*
X115057142Y-56172295D01*
X115057142Y-56172295D02*
X114866666Y-56172295D01*
X114866666Y-56172295D02*
X114790476Y-56134200D01*
X114790476Y-56134200D02*
X114752380Y-56096104D01*
X113228571Y-58712295D02*
X113228571Y-57912295D01*
X113228571Y-57912295D02*
X113533333Y-57912295D01*
X113533333Y-57912295D02*
X113609523Y-57950390D01*
X113609523Y-57950390D02*
X113647618Y-57988485D01*
X113647618Y-57988485D02*
X113685714Y-58064676D01*
X113685714Y-58064676D02*
X113685714Y-58178961D01*
X113685714Y-58178961D02*
X113647618Y-58255152D01*
X113647618Y-58255152D02*
X113609523Y-58293247D01*
X113609523Y-58293247D02*
X113533333Y-58331342D01*
X113533333Y-58331342D02*
X113228571Y-58331342D01*
X114180952Y-57912295D02*
X114257142Y-57912295D01*
X114257142Y-57912295D02*
X114333333Y-57950390D01*
X114333333Y-57950390D02*
X114371428Y-57988485D01*
X114371428Y-57988485D02*
X114409523Y-58064676D01*
X114409523Y-58064676D02*
X114447618Y-58217057D01*
X114447618Y-58217057D02*
X114447618Y-58407533D01*
X114447618Y-58407533D02*
X114409523Y-58559914D01*
X114409523Y-58559914D02*
X114371428Y-58636104D01*
X114371428Y-58636104D02*
X114333333Y-58674200D01*
X114333333Y-58674200D02*
X114257142Y-58712295D01*
X114257142Y-58712295D02*
X114180952Y-58712295D01*
X114180952Y-58712295D02*
X114104761Y-58674200D01*
X114104761Y-58674200D02*
X114066666Y-58636104D01*
X114066666Y-58636104D02*
X114028571Y-58559914D01*
X114028571Y-58559914D02*
X113990475Y-58407533D01*
X113990475Y-58407533D02*
X113990475Y-58217057D01*
X113990475Y-58217057D02*
X114028571Y-58064676D01*
X114028571Y-58064676D02*
X114066666Y-57988485D01*
X114066666Y-57988485D02*
X114104761Y-57950390D01*
X114104761Y-57950390D02*
X114180952Y-57912295D01*
X115133333Y-57912295D02*
X114980952Y-57912295D01*
X114980952Y-57912295D02*
X114904761Y-57950390D01*
X114904761Y-57950390D02*
X114866666Y-57988485D01*
X114866666Y-57988485D02*
X114790476Y-58102771D01*
X114790476Y-58102771D02*
X114752380Y-58255152D01*
X114752380Y-58255152D02*
X114752380Y-58559914D01*
X114752380Y-58559914D02*
X114790476Y-58636104D01*
X114790476Y-58636104D02*
X114828571Y-58674200D01*
X114828571Y-58674200D02*
X114904761Y-58712295D01*
X114904761Y-58712295D02*
X115057142Y-58712295D01*
X115057142Y-58712295D02*
X115133333Y-58674200D01*
X115133333Y-58674200D02*
X115171428Y-58636104D01*
X115171428Y-58636104D02*
X115209523Y-58559914D01*
X115209523Y-58559914D02*
X115209523Y-58369438D01*
X115209523Y-58369438D02*
X115171428Y-58293247D01*
X115171428Y-58293247D02*
X115133333Y-58255152D01*
X115133333Y-58255152D02*
X115057142Y-58217057D01*
X115057142Y-58217057D02*
X114904761Y-58217057D01*
X114904761Y-58217057D02*
X114828571Y-58255152D01*
X114828571Y-58255152D02*
X114790476Y-58293247D01*
X114790476Y-58293247D02*
X114752380Y-58369438D01*
X113228571Y-61252295D02*
X113228571Y-60452295D01*
X113228571Y-60452295D02*
X113533333Y-60452295D01*
X113533333Y-60452295D02*
X113609523Y-60490390D01*
X113609523Y-60490390D02*
X113647618Y-60528485D01*
X113647618Y-60528485D02*
X113685714Y-60604676D01*
X113685714Y-60604676D02*
X113685714Y-60718961D01*
X113685714Y-60718961D02*
X113647618Y-60795152D01*
X113647618Y-60795152D02*
X113609523Y-60833247D01*
X113609523Y-60833247D02*
X113533333Y-60871342D01*
X113533333Y-60871342D02*
X113228571Y-60871342D01*
X114180952Y-60452295D02*
X114257142Y-60452295D01*
X114257142Y-60452295D02*
X114333333Y-60490390D01*
X114333333Y-60490390D02*
X114371428Y-60528485D01*
X114371428Y-60528485D02*
X114409523Y-60604676D01*
X114409523Y-60604676D02*
X114447618Y-60757057D01*
X114447618Y-60757057D02*
X114447618Y-60947533D01*
X114447618Y-60947533D02*
X114409523Y-61099914D01*
X114409523Y-61099914D02*
X114371428Y-61176104D01*
X114371428Y-61176104D02*
X114333333Y-61214200D01*
X114333333Y-61214200D02*
X114257142Y-61252295D01*
X114257142Y-61252295D02*
X114180952Y-61252295D01*
X114180952Y-61252295D02*
X114104761Y-61214200D01*
X114104761Y-61214200D02*
X114066666Y-61176104D01*
X114066666Y-61176104D02*
X114028571Y-61099914D01*
X114028571Y-61099914D02*
X113990475Y-60947533D01*
X113990475Y-60947533D02*
X113990475Y-60757057D01*
X113990475Y-60757057D02*
X114028571Y-60604676D01*
X114028571Y-60604676D02*
X114066666Y-60528485D01*
X114066666Y-60528485D02*
X114104761Y-60490390D01*
X114104761Y-60490390D02*
X114180952Y-60452295D01*
X114714285Y-60452295D02*
X115247619Y-60452295D01*
X115247619Y-60452295D02*
X114904761Y-61252295D01*
X113228571Y-63792295D02*
X113228571Y-62992295D01*
X113228571Y-62992295D02*
X113533333Y-62992295D01*
X113533333Y-62992295D02*
X113609523Y-63030390D01*
X113609523Y-63030390D02*
X113647618Y-63068485D01*
X113647618Y-63068485D02*
X113685714Y-63144676D01*
X113685714Y-63144676D02*
X113685714Y-63258961D01*
X113685714Y-63258961D02*
X113647618Y-63335152D01*
X113647618Y-63335152D02*
X113609523Y-63373247D01*
X113609523Y-63373247D02*
X113533333Y-63411342D01*
X113533333Y-63411342D02*
X113228571Y-63411342D01*
X114180952Y-62992295D02*
X114257142Y-62992295D01*
X114257142Y-62992295D02*
X114333333Y-63030390D01*
X114333333Y-63030390D02*
X114371428Y-63068485D01*
X114371428Y-63068485D02*
X114409523Y-63144676D01*
X114409523Y-63144676D02*
X114447618Y-63297057D01*
X114447618Y-63297057D02*
X114447618Y-63487533D01*
X114447618Y-63487533D02*
X114409523Y-63639914D01*
X114409523Y-63639914D02*
X114371428Y-63716104D01*
X114371428Y-63716104D02*
X114333333Y-63754200D01*
X114333333Y-63754200D02*
X114257142Y-63792295D01*
X114257142Y-63792295D02*
X114180952Y-63792295D01*
X114180952Y-63792295D02*
X114104761Y-63754200D01*
X114104761Y-63754200D02*
X114066666Y-63716104D01*
X114066666Y-63716104D02*
X114028571Y-63639914D01*
X114028571Y-63639914D02*
X113990475Y-63487533D01*
X113990475Y-63487533D02*
X113990475Y-63297057D01*
X113990475Y-63297057D02*
X114028571Y-63144676D01*
X114028571Y-63144676D02*
X114066666Y-63068485D01*
X114066666Y-63068485D02*
X114104761Y-63030390D01*
X114104761Y-63030390D02*
X114180952Y-62992295D01*
X114904761Y-63335152D02*
X114828571Y-63297057D01*
X114828571Y-63297057D02*
X114790476Y-63258961D01*
X114790476Y-63258961D02*
X114752380Y-63182771D01*
X114752380Y-63182771D02*
X114752380Y-63144676D01*
X114752380Y-63144676D02*
X114790476Y-63068485D01*
X114790476Y-63068485D02*
X114828571Y-63030390D01*
X114828571Y-63030390D02*
X114904761Y-62992295D01*
X114904761Y-62992295D02*
X115057142Y-62992295D01*
X115057142Y-62992295D02*
X115133333Y-63030390D01*
X115133333Y-63030390D02*
X115171428Y-63068485D01*
X115171428Y-63068485D02*
X115209523Y-63144676D01*
X115209523Y-63144676D02*
X115209523Y-63182771D01*
X115209523Y-63182771D02*
X115171428Y-63258961D01*
X115171428Y-63258961D02*
X115133333Y-63297057D01*
X115133333Y-63297057D02*
X115057142Y-63335152D01*
X115057142Y-63335152D02*
X114904761Y-63335152D01*
X114904761Y-63335152D02*
X114828571Y-63373247D01*
X114828571Y-63373247D02*
X114790476Y-63411342D01*
X114790476Y-63411342D02*
X114752380Y-63487533D01*
X114752380Y-63487533D02*
X114752380Y-63639914D01*
X114752380Y-63639914D02*
X114790476Y-63716104D01*
X114790476Y-63716104D02*
X114828571Y-63754200D01*
X114828571Y-63754200D02*
X114904761Y-63792295D01*
X114904761Y-63792295D02*
X115057142Y-63792295D01*
X115057142Y-63792295D02*
X115133333Y-63754200D01*
X115133333Y-63754200D02*
X115171428Y-63716104D01*
X115171428Y-63716104D02*
X115209523Y-63639914D01*
X115209523Y-63639914D02*
X115209523Y-63487533D01*
X115209523Y-63487533D02*
X115171428Y-63411342D01*
X115171428Y-63411342D02*
X115133333Y-63373247D01*
X115133333Y-63373247D02*
X115057142Y-63335152D01*
X113228571Y-66332295D02*
X113228571Y-65532295D01*
X113228571Y-65532295D02*
X113533333Y-65532295D01*
X113533333Y-65532295D02*
X113609523Y-65570390D01*
X113609523Y-65570390D02*
X113647618Y-65608485D01*
X113647618Y-65608485D02*
X113685714Y-65684676D01*
X113685714Y-65684676D02*
X113685714Y-65798961D01*
X113685714Y-65798961D02*
X113647618Y-65875152D01*
X113647618Y-65875152D02*
X113609523Y-65913247D01*
X113609523Y-65913247D02*
X113533333Y-65951342D01*
X113533333Y-65951342D02*
X113228571Y-65951342D01*
X114180952Y-65532295D02*
X114257142Y-65532295D01*
X114257142Y-65532295D02*
X114333333Y-65570390D01*
X114333333Y-65570390D02*
X114371428Y-65608485D01*
X114371428Y-65608485D02*
X114409523Y-65684676D01*
X114409523Y-65684676D02*
X114447618Y-65837057D01*
X114447618Y-65837057D02*
X114447618Y-66027533D01*
X114447618Y-66027533D02*
X114409523Y-66179914D01*
X114409523Y-66179914D02*
X114371428Y-66256104D01*
X114371428Y-66256104D02*
X114333333Y-66294200D01*
X114333333Y-66294200D02*
X114257142Y-66332295D01*
X114257142Y-66332295D02*
X114180952Y-66332295D01*
X114180952Y-66332295D02*
X114104761Y-66294200D01*
X114104761Y-66294200D02*
X114066666Y-66256104D01*
X114066666Y-66256104D02*
X114028571Y-66179914D01*
X114028571Y-66179914D02*
X113990475Y-66027533D01*
X113990475Y-66027533D02*
X113990475Y-65837057D01*
X113990475Y-65837057D02*
X114028571Y-65684676D01*
X114028571Y-65684676D02*
X114066666Y-65608485D01*
X114066666Y-65608485D02*
X114104761Y-65570390D01*
X114104761Y-65570390D02*
X114180952Y-65532295D01*
X114828571Y-66332295D02*
X114980952Y-66332295D01*
X114980952Y-66332295D02*
X115057142Y-66294200D01*
X115057142Y-66294200D02*
X115095238Y-66256104D01*
X115095238Y-66256104D02*
X115171428Y-66141819D01*
X115171428Y-66141819D02*
X115209523Y-65989438D01*
X115209523Y-65989438D02*
X115209523Y-65684676D01*
X115209523Y-65684676D02*
X115171428Y-65608485D01*
X115171428Y-65608485D02*
X115133333Y-65570390D01*
X115133333Y-65570390D02*
X115057142Y-65532295D01*
X115057142Y-65532295D02*
X114904761Y-65532295D01*
X114904761Y-65532295D02*
X114828571Y-65570390D01*
X114828571Y-65570390D02*
X114790476Y-65608485D01*
X114790476Y-65608485D02*
X114752380Y-65684676D01*
X114752380Y-65684676D02*
X114752380Y-65875152D01*
X114752380Y-65875152D02*
X114790476Y-65951342D01*
X114790476Y-65951342D02*
X114828571Y-65989438D01*
X114828571Y-65989438D02*
X114904761Y-66027533D01*
X114904761Y-66027533D02*
X115057142Y-66027533D01*
X115057142Y-66027533D02*
X115133333Y-65989438D01*
X115133333Y-65989438D02*
X115171428Y-65951342D01*
X115171428Y-65951342D02*
X115209523Y-65875152D01*
D11*
%TO.C,D1*%
X100250000Y-105000000D02*
X100750000Y-105000000D01*
X100250000Y-105400000D02*
X99650000Y-105000000D01*
X100250000Y-104600000D02*
X100250000Y-105400000D01*
X99650000Y-105000000D02*
X100250000Y-104600000D01*
X99650000Y-105000000D02*
X99650000Y-105550000D01*
X99650000Y-105000000D02*
X99650000Y-104450000D01*
X99250000Y-105000000D02*
X99650000Y-105000000D01*
%TO.C,D2*%
X100250000Y-86000000D02*
X100750000Y-86000000D01*
X100250000Y-86400000D02*
X99650000Y-86000000D01*
X100250000Y-85600000D02*
X100250000Y-86400000D01*
X99650000Y-86000000D02*
X100250000Y-85600000D01*
X99650000Y-86000000D02*
X99650000Y-86550000D01*
X99650000Y-86000000D02*
X99650000Y-85450000D01*
X99250000Y-86000000D02*
X99650000Y-86000000D01*
%TO.C,D3*%
X100250000Y-67000000D02*
X100750000Y-67000000D01*
X100250000Y-67400000D02*
X99650000Y-67000000D01*
X100250000Y-66600000D02*
X100250000Y-67400000D01*
X99650000Y-67000000D02*
X100250000Y-66600000D01*
X99650000Y-67000000D02*
X99650000Y-67550000D01*
X99650000Y-67000000D02*
X99650000Y-66450000D01*
X99250000Y-67000000D02*
X99650000Y-67000000D01*
%TO.C,D4*%
X100250000Y-48000000D02*
X100750000Y-48000000D01*
X100250000Y-48400000D02*
X99650000Y-48000000D01*
X100250000Y-47600000D02*
X100250000Y-48400000D01*
X99650000Y-48000000D02*
X100250000Y-47600000D01*
X99650000Y-48000000D02*
X99650000Y-48550000D01*
X99650000Y-48000000D02*
X99650000Y-47450000D01*
X99250000Y-48000000D02*
X99650000Y-48000000D01*
%TO.C,D5*%
X119250000Y-105000000D02*
X119750000Y-105000000D01*
X119250000Y-105400000D02*
X118650000Y-105000000D01*
X119250000Y-104600000D02*
X119250000Y-105400000D01*
X118650000Y-105000000D02*
X119250000Y-104600000D01*
X118650000Y-105000000D02*
X118650000Y-105550000D01*
X118650000Y-105000000D02*
X118650000Y-104450000D01*
X118250000Y-105000000D02*
X118650000Y-105000000D01*
%TO.C,D6*%
X119250000Y-86000000D02*
X119750000Y-86000000D01*
X119250000Y-86400000D02*
X118650000Y-86000000D01*
X119250000Y-85600000D02*
X119250000Y-86400000D01*
X118650000Y-86000000D02*
X119250000Y-85600000D01*
X118650000Y-86000000D02*
X118650000Y-86550000D01*
X118650000Y-86000000D02*
X118650000Y-85450000D01*
X118250000Y-86000000D02*
X118650000Y-86000000D01*
%TO.C,D7*%
X119250000Y-67000000D02*
X119750000Y-67000000D01*
X119250000Y-67400000D02*
X118650000Y-67000000D01*
X119250000Y-66600000D02*
X119250000Y-67400000D01*
X118650000Y-67000000D02*
X119250000Y-66600000D01*
X118650000Y-67000000D02*
X118650000Y-67550000D01*
X118650000Y-67000000D02*
X118650000Y-66450000D01*
X118250000Y-67000000D02*
X118650000Y-67000000D01*
%TO.C,D8*%
X119250000Y-48000000D02*
X119750000Y-48000000D01*
X119250000Y-48400000D02*
X118650000Y-48000000D01*
X119250000Y-47600000D02*
X119250000Y-48400000D01*
X118650000Y-48000000D02*
X119250000Y-47600000D01*
X118650000Y-48000000D02*
X118650000Y-48550000D01*
X118650000Y-48000000D02*
X118650000Y-47450000D01*
X118250000Y-48000000D02*
X118650000Y-48000000D01*
%TO.C,D9*%
X138250000Y-100000000D02*
X138750000Y-100000000D01*
X138250000Y-100400000D02*
X137650000Y-100000000D01*
X138250000Y-99600000D02*
X138250000Y-100400000D01*
X137650000Y-100000000D02*
X138250000Y-99600000D01*
X137650000Y-100000000D02*
X137650000Y-100550000D01*
X137650000Y-100000000D02*
X137650000Y-99450000D01*
X137250000Y-100000000D02*
X137650000Y-100000000D01*
%TO.C,D10*%
X138250000Y-81000000D02*
X138750000Y-81000000D01*
X138250000Y-81400000D02*
X137650000Y-81000000D01*
X138250000Y-80600000D02*
X138250000Y-81400000D01*
X137650000Y-81000000D02*
X138250000Y-80600000D01*
X137650000Y-81000000D02*
X137650000Y-81550000D01*
X137650000Y-81000000D02*
X137650000Y-80450000D01*
X137250000Y-81000000D02*
X137650000Y-81000000D01*
%TO.C,D11*%
X138250000Y-62000000D02*
X138750000Y-62000000D01*
X138250000Y-62400000D02*
X137650000Y-62000000D01*
X138250000Y-61600000D02*
X138250000Y-62400000D01*
X137650000Y-62000000D02*
X138250000Y-61600000D01*
X137650000Y-62000000D02*
X137650000Y-62550000D01*
X137650000Y-62000000D02*
X137650000Y-61450000D01*
X137250000Y-62000000D02*
X137650000Y-62000000D01*
%TO.C,D12*%
X138250000Y-43000000D02*
X138750000Y-43000000D01*
X138250000Y-43400000D02*
X137650000Y-43000000D01*
X138250000Y-42600000D02*
X138250000Y-43400000D01*
X137650000Y-43000000D02*
X138250000Y-42600000D01*
X137650000Y-43000000D02*
X137650000Y-43550000D01*
X137650000Y-43000000D02*
X137650000Y-42450000D01*
X137250000Y-43000000D02*
X137650000Y-43000000D01*
%TO.C,D13*%
X157250000Y-97000000D02*
X157750000Y-97000000D01*
X157250000Y-97400000D02*
X156650000Y-97000000D01*
X157250000Y-96600000D02*
X157250000Y-97400000D01*
X156650000Y-97000000D02*
X157250000Y-96600000D01*
X156650000Y-97000000D02*
X156650000Y-97550000D01*
X156650000Y-97000000D02*
X156650000Y-96450000D01*
X156250000Y-97000000D02*
X156650000Y-97000000D01*
%TO.C,D14*%
X157250000Y-78000000D02*
X157750000Y-78000000D01*
X157250000Y-78400000D02*
X156650000Y-78000000D01*
X157250000Y-77600000D02*
X157250000Y-78400000D01*
X156650000Y-78000000D02*
X157250000Y-77600000D01*
X156650000Y-78000000D02*
X156650000Y-78550000D01*
X156650000Y-78000000D02*
X156650000Y-77450000D01*
X156250000Y-78000000D02*
X156650000Y-78000000D01*
%TO.C,D15*%
X157250000Y-59000000D02*
X157750000Y-59000000D01*
X157250000Y-59400000D02*
X156650000Y-59000000D01*
X157250000Y-58600000D02*
X157250000Y-59400000D01*
X156650000Y-59000000D02*
X157250000Y-58600000D01*
X156650000Y-59000000D02*
X156650000Y-59550000D01*
X156650000Y-59000000D02*
X156650000Y-58450000D01*
X156250000Y-59000000D02*
X156650000Y-59000000D01*
%TO.C,D16*%
X157250000Y-40000000D02*
X157750000Y-40000000D01*
X157250000Y-40400000D02*
X156650000Y-40000000D01*
X157250000Y-39600000D02*
X157250000Y-40400000D01*
X156650000Y-40000000D02*
X157250000Y-39600000D01*
X156650000Y-40000000D02*
X156650000Y-40550000D01*
X156650000Y-40000000D02*
X156650000Y-39450000D01*
X156250000Y-40000000D02*
X156650000Y-40000000D01*
%TO.C,D17*%
X176250000Y-100000000D02*
X176750000Y-100000000D01*
X176250000Y-100400000D02*
X175650000Y-100000000D01*
X176250000Y-99600000D02*
X176250000Y-100400000D01*
X175650000Y-100000000D02*
X176250000Y-99600000D01*
X175650000Y-100000000D02*
X175650000Y-100550000D01*
X175650000Y-100000000D02*
X175650000Y-99450000D01*
X175250000Y-100000000D02*
X175650000Y-100000000D01*
%TO.C,D18*%
X176250000Y-81000000D02*
X176750000Y-81000000D01*
X176250000Y-81400000D02*
X175650000Y-81000000D01*
X176250000Y-80600000D02*
X176250000Y-81400000D01*
X175650000Y-81000000D02*
X176250000Y-80600000D01*
X175650000Y-81000000D02*
X175650000Y-81550000D01*
X175650000Y-81000000D02*
X175650000Y-80450000D01*
X175250000Y-81000000D02*
X175650000Y-81000000D01*
%TO.C,D19*%
X176250000Y-62000000D02*
X176750000Y-62000000D01*
X176250000Y-62400000D02*
X175650000Y-62000000D01*
X176250000Y-61600000D02*
X176250000Y-62400000D01*
X175650000Y-62000000D02*
X176250000Y-61600000D01*
X175650000Y-62000000D02*
X175650000Y-62550000D01*
X175650000Y-62000000D02*
X175650000Y-61450000D01*
X175250000Y-62000000D02*
X175650000Y-62000000D01*
%TO.C,D20*%
X176250000Y-43000000D02*
X176750000Y-43000000D01*
X176250000Y-43400000D02*
X175650000Y-43000000D01*
X176250000Y-42600000D02*
X176250000Y-43400000D01*
X175650000Y-43000000D02*
X176250000Y-42600000D01*
X175650000Y-43000000D02*
X175650000Y-43550000D01*
X175650000Y-43000000D02*
X175650000Y-42450000D01*
X175250000Y-43000000D02*
X175650000Y-43000000D01*
%TO.C,D21*%
X195250000Y-103000000D02*
X195750000Y-103000000D01*
X195250000Y-103400000D02*
X194650000Y-103000000D01*
X195250000Y-102600000D02*
X195250000Y-103400000D01*
X194650000Y-103000000D02*
X195250000Y-102600000D01*
X194650000Y-103000000D02*
X194650000Y-103550000D01*
X194650000Y-103000000D02*
X194650000Y-102450000D01*
X194250000Y-103000000D02*
X194650000Y-103000000D01*
%TO.C,D22*%
X195250000Y-84000000D02*
X195750000Y-84000000D01*
X195250000Y-84400000D02*
X194650000Y-84000000D01*
X195250000Y-83600000D02*
X195250000Y-84400000D01*
X194650000Y-84000000D02*
X195250000Y-83600000D01*
X194650000Y-84000000D02*
X194650000Y-84550000D01*
X194650000Y-84000000D02*
X194650000Y-83450000D01*
X194250000Y-84000000D02*
X194650000Y-84000000D01*
%TO.C,D23*%
X195250000Y-65000000D02*
X195750000Y-65000000D01*
X195250000Y-65400000D02*
X194650000Y-65000000D01*
X195250000Y-64600000D02*
X195250000Y-65400000D01*
X194650000Y-65000000D02*
X195250000Y-64600000D01*
X194650000Y-65000000D02*
X194650000Y-65550000D01*
X194650000Y-65000000D02*
X194650000Y-64450000D01*
X194250000Y-65000000D02*
X194650000Y-65000000D01*
%TO.C,D24*%
X195250000Y-46000000D02*
X195750000Y-46000000D01*
X195250000Y-46400000D02*
X194650000Y-46000000D01*
X195250000Y-45600000D02*
X195250000Y-46400000D01*
X194650000Y-46000000D02*
X195250000Y-45600000D01*
X194650000Y-46000000D02*
X194650000Y-46550000D01*
X194650000Y-46000000D02*
X194650000Y-45450000D01*
X194250000Y-46000000D02*
X194650000Y-46000000D01*
%TO.C,D25*%
X214250000Y-107500000D02*
X214750000Y-107500000D01*
X214250000Y-107900000D02*
X213650000Y-107500000D01*
X214250000Y-107100000D02*
X214250000Y-107900000D01*
X213650000Y-107500000D02*
X214250000Y-107100000D01*
X213650000Y-107500000D02*
X213650000Y-108050000D01*
X213650000Y-107500000D02*
X213650000Y-106950000D01*
X213250000Y-107500000D02*
X213650000Y-107500000D01*
%TO.C,D26*%
X214250000Y-88500000D02*
X214750000Y-88500000D01*
X214250000Y-88900000D02*
X213650000Y-88500000D01*
X214250000Y-88100000D02*
X214250000Y-88900000D01*
X213650000Y-88500000D02*
X214250000Y-88100000D01*
X213650000Y-88500000D02*
X213650000Y-89050000D01*
X213650000Y-88500000D02*
X213650000Y-87950000D01*
X213250000Y-88500000D02*
X213650000Y-88500000D01*
%TO.C,D27*%
X214250000Y-69500000D02*
X214750000Y-69500000D01*
X214250000Y-69900000D02*
X213650000Y-69500000D01*
X214250000Y-69100000D02*
X214250000Y-69900000D01*
X213650000Y-69500000D02*
X214250000Y-69100000D01*
X213650000Y-69500000D02*
X213650000Y-70050000D01*
X213650000Y-69500000D02*
X213650000Y-68950000D01*
X213250000Y-69500000D02*
X213650000Y-69500000D01*
%TO.C,D28*%
X214250000Y-50500000D02*
X214750000Y-50500000D01*
X214250000Y-50900000D02*
X213650000Y-50500000D01*
X214250000Y-50100000D02*
X214250000Y-50900000D01*
X213650000Y-50500000D02*
X214250000Y-50100000D01*
X213650000Y-50500000D02*
X213650000Y-51050000D01*
X213650000Y-50500000D02*
X213650000Y-49950000D01*
X213250000Y-50500000D02*
X213650000Y-50500000D01*
%TO.C,D29*%
X152750000Y-120000000D02*
X153250000Y-120000000D01*
X152750000Y-120400000D02*
X152150000Y-120000000D01*
X152750000Y-119600000D02*
X152750000Y-120400000D01*
X152150000Y-120000000D02*
X152750000Y-119600000D01*
X152150000Y-120000000D02*
X152150000Y-120550000D01*
X152150000Y-120000000D02*
X152150000Y-119450000D01*
X151750000Y-120000000D02*
X152150000Y-120000000D01*
%TO.C,D30*%
X172059619Y-120908568D02*
X172557716Y-120952146D01*
X172024756Y-121307046D02*
X171461902Y-120856274D01*
X172094481Y-120510090D02*
X172024756Y-121307046D01*
X171461902Y-120856274D02*
X172094481Y-120510090D01*
X171461902Y-120856274D02*
X171413966Y-121404182D01*
X171461902Y-120856274D02*
X171509838Y-120308367D01*
X171063424Y-120821412D02*
X171461902Y-120856274D01*
%TO.C,D31*%
X191222265Y-123453376D02*
X191714669Y-123540200D01*
X191152806Y-123847299D02*
X190631380Y-123349187D01*
X191291724Y-123059453D02*
X191152806Y-123847299D01*
X190631380Y-123349187D02*
X191291724Y-123059453D01*
X190631380Y-123349187D02*
X190535874Y-123890831D01*
X190631380Y-123349187D02*
X190726887Y-122807543D01*
X190237457Y-123279728D02*
X190631380Y-123349187D01*
%TO.C,D32*%
X210146801Y-129043011D02*
X210610393Y-129230314D01*
X209996958Y-129413884D02*
X209590491Y-128818247D01*
X210296644Y-128672137D02*
X209996958Y-129413884D01*
X209590491Y-128818247D02*
X210296644Y-128672137D01*
X209590491Y-128818247D02*
X209384457Y-129328198D01*
X209590491Y-128818247D02*
X209796524Y-128308296D01*
X209219617Y-128668404D02*
X209590491Y-128818247D01*
D10*
%TO.C,MCU1*%
X110110000Y-34220000D02*
X110110000Y-67240000D01*
X110110000Y-67240000D02*
X127890000Y-67240000D01*
X127890000Y-67240000D02*
X127890000Y-34220000D01*
X127890000Y-34220000D02*
X110110000Y-34220000D01*
X125350000Y-36760000D02*
X125350000Y-39300000D01*
X125350000Y-36760000D02*
X127890000Y-36760000D01*
X125350000Y-39300000D02*
X127890000Y-39300000D01*
%TD*%
D12*
%TO.C,MCU1*%
X126620000Y-38030000D03*
D13*
X126620000Y-40570000D03*
X126620000Y-43110000D03*
X126620000Y-45650000D03*
X126620000Y-48190000D03*
X126620000Y-50730000D03*
X126620000Y-53270000D03*
X126620000Y-55810000D03*
X126620000Y-58350000D03*
X126620000Y-60890000D03*
X126620000Y-63430000D03*
X126620000Y-65970000D03*
X111380000Y-38030000D03*
X111380000Y-40570000D03*
X111380000Y-43110000D03*
X111380000Y-45650000D03*
X111380000Y-48190000D03*
X111380000Y-50730000D03*
X111380000Y-53270000D03*
X111380000Y-55810000D03*
X111380000Y-58350000D03*
X111380000Y-60890000D03*
X111380000Y-63430000D03*
X111380000Y-65970000D03*
%TD*%
M02*
