%TF.GenerationSoftware,KiCad,Pcbnew,8.0.6*%
%TF.CreationDate,2024-11-09T22:39:55-08:00*%
%TF.ProjectId,altair,616c7461-6972-42e6-9b69-6361645f7063,v1.0.0*%
%TF.SameCoordinates,Original*%
%TF.FileFunction,Copper,L1,Top*%
%TF.FilePolarity,Positive*%
%FSLAX46Y46*%
G04 Gerber Fmt 4.6, Leading zero omitted, Abs format (unit mm)*
G04 Created by KiCad (PCBNEW 8.0.6) date 2024-11-09 22:39:55*
%MOMM*%
%LPD*%
G01*
G04 APERTURE LIST*
G04 Aperture macros list*
%AMRotRect*
0 Rectangle, with rotation*
0 The origin of the aperture is its center*
0 $1 length*
0 $2 width*
0 $3 Rotation angle, in degrees counterclockwise*
0 Add horizontal line*
21,1,$1,$2,0,0,$3*%
G04 Aperture macros list end*
%TA.AperFunction,SMDPad,CuDef*%
%ADD10R,0.900000X1.200000*%
%TD*%
%TA.AperFunction,ComponentPad*%
%ADD11R,1.778000X1.778000*%
%TD*%
%TA.AperFunction,ComponentPad*%
%ADD12C,1.905000*%
%TD*%
%TA.AperFunction,SMDPad,CuDef*%
%ADD13RotRect,0.900000X1.200000X355.000000*%
%TD*%
%TA.AperFunction,ComponentPad*%
%ADD14RotRect,1.778000X1.778000X355.000000*%
%TD*%
%TA.AperFunction,SMDPad,CuDef*%
%ADD15RotRect,0.900000X1.200000X350.000000*%
%TD*%
%TA.AperFunction,ComponentPad*%
%ADD16RotRect,1.778000X1.778000X350.000000*%
%TD*%
%TA.AperFunction,SMDPad,CuDef*%
%ADD17RotRect,0.900000X1.200000X338.000000*%
%TD*%
%TA.AperFunction,ComponentPad*%
%ADD18RotRect,1.778000X1.778000X338.000000*%
%TD*%
%TA.AperFunction,ComponentPad*%
%ADD19R,1.752600X1.752600*%
%TD*%
%TA.AperFunction,ComponentPad*%
%ADD20C,1.752600*%
%TD*%
G04 APERTURE END LIST*
D10*
%TO.P,D1,1*%
%TO.N,N/C*%
X98350000Y-105000000D03*
%TO.P,D1,2*%
%TO.N,left_bottom*%
X101650000Y-105000000D03*
D11*
%TO.P,D1,1*%
%TO.N,N/C*%
X96190000Y-105000000D03*
D12*
%TO.P,D1,2*%
%TO.N,left_bottom*%
X103810000Y-105000000D03*
%TD*%
D10*
%TO.P,D2,1*%
%TO.N,N/C*%
X98350000Y-86000000D03*
%TO.P,D2,2*%
%TO.N,left_home*%
X101650000Y-86000000D03*
D11*
%TO.P,D2,1*%
%TO.N,N/C*%
X96190000Y-86000000D03*
D12*
%TO.P,D2,2*%
%TO.N,left_home*%
X103810000Y-86000000D03*
%TD*%
D10*
%TO.P,D3,1*%
%TO.N,N/C*%
X98350000Y-67000000D03*
%TO.P,D3,2*%
%TO.N,left_top*%
X101650000Y-67000000D03*
D11*
%TO.P,D3,1*%
%TO.N,N/C*%
X96190000Y-67000000D03*
D12*
%TO.P,D3,2*%
%TO.N,left_top*%
X103810000Y-67000000D03*
%TD*%
D10*
%TO.P,D4,1*%
%TO.N,N/C*%
X98350000Y-48000000D03*
%TO.P,D4,2*%
%TO.N,left_num*%
X101650000Y-48000000D03*
D11*
%TO.P,D4,1*%
%TO.N,N/C*%
X96190000Y-48000000D03*
D12*
%TO.P,D4,2*%
%TO.N,left_num*%
X103810000Y-48000000D03*
%TD*%
D10*
%TO.P,D5,1*%
%TO.N,N/C*%
X117350000Y-105000000D03*
%TO.P,D5,2*%
%TO.N,pinky_bottom*%
X120650000Y-105000000D03*
D11*
%TO.P,D5,1*%
%TO.N,N/C*%
X115190000Y-105000000D03*
D12*
%TO.P,D5,2*%
%TO.N,pinky_bottom*%
X122810000Y-105000000D03*
%TD*%
D10*
%TO.P,D6,1*%
%TO.N,N/C*%
X117350000Y-86000000D03*
%TO.P,D6,2*%
%TO.N,pinky_home*%
X120650000Y-86000000D03*
D11*
%TO.P,D6,1*%
%TO.N,N/C*%
X115190000Y-86000000D03*
D12*
%TO.P,D6,2*%
%TO.N,pinky_home*%
X122810000Y-86000000D03*
%TD*%
D10*
%TO.P,D7,1*%
%TO.N,N/C*%
X117350000Y-67000000D03*
%TO.P,D7,2*%
%TO.N,pinky_top*%
X120650000Y-67000000D03*
D11*
%TO.P,D7,1*%
%TO.N,N/C*%
X115190000Y-67000000D03*
D12*
%TO.P,D7,2*%
%TO.N,pinky_top*%
X122810000Y-67000000D03*
%TD*%
D10*
%TO.P,D8,1*%
%TO.N,N/C*%
X117350000Y-48000000D03*
%TO.P,D8,2*%
%TO.N,pinky_num*%
X120650000Y-48000000D03*
D11*
%TO.P,D8,1*%
%TO.N,N/C*%
X115190000Y-48000000D03*
D12*
%TO.P,D8,2*%
%TO.N,pinky_num*%
X122810000Y-48000000D03*
%TD*%
D10*
%TO.P,D9,1*%
%TO.N,N/C*%
X136350000Y-100000000D03*
%TO.P,D9,2*%
%TO.N,ring_bottom*%
X139650000Y-100000000D03*
D11*
%TO.P,D9,1*%
%TO.N,N/C*%
X134190000Y-100000000D03*
D12*
%TO.P,D9,2*%
%TO.N,ring_bottom*%
X141810000Y-100000000D03*
%TD*%
D10*
%TO.P,D10,1*%
%TO.N,N/C*%
X136350000Y-81000000D03*
%TO.P,D10,2*%
%TO.N,ring_home*%
X139650000Y-81000000D03*
D11*
%TO.P,D10,1*%
%TO.N,N/C*%
X134190000Y-81000000D03*
D12*
%TO.P,D10,2*%
%TO.N,ring_home*%
X141810000Y-81000000D03*
%TD*%
D10*
%TO.P,D11,1*%
%TO.N,N/C*%
X136350000Y-62000000D03*
%TO.P,D11,2*%
%TO.N,ring_top*%
X139650000Y-62000000D03*
D11*
%TO.P,D11,1*%
%TO.N,N/C*%
X134190000Y-62000000D03*
D12*
%TO.P,D11,2*%
%TO.N,ring_top*%
X141810000Y-62000000D03*
%TD*%
D10*
%TO.P,D12,1*%
%TO.N,N/C*%
X136350000Y-43000000D03*
%TO.P,D12,2*%
%TO.N,ring_num*%
X139650000Y-43000000D03*
D11*
%TO.P,D12,1*%
%TO.N,N/C*%
X134190000Y-43000000D03*
D12*
%TO.P,D12,2*%
%TO.N,ring_num*%
X141810000Y-43000000D03*
%TD*%
D10*
%TO.P,D13,1*%
%TO.N,N/C*%
X155350000Y-97000000D03*
%TO.P,D13,2*%
%TO.N,middle_bottom*%
X158650000Y-97000000D03*
D11*
%TO.P,D13,1*%
%TO.N,N/C*%
X153190000Y-97000000D03*
D12*
%TO.P,D13,2*%
%TO.N,middle_bottom*%
X160810000Y-97000000D03*
%TD*%
D10*
%TO.P,D14,1*%
%TO.N,N/C*%
X155350000Y-78000000D03*
%TO.P,D14,2*%
%TO.N,middle_home*%
X158650000Y-78000000D03*
D11*
%TO.P,D14,1*%
%TO.N,N/C*%
X153190000Y-78000000D03*
D12*
%TO.P,D14,2*%
%TO.N,middle_home*%
X160810000Y-78000000D03*
%TD*%
D10*
%TO.P,D15,1*%
%TO.N,N/C*%
X155350000Y-59000000D03*
%TO.P,D15,2*%
%TO.N,middle_top*%
X158650000Y-59000000D03*
D11*
%TO.P,D15,1*%
%TO.N,N/C*%
X153190000Y-59000000D03*
D12*
%TO.P,D15,2*%
%TO.N,middle_top*%
X160810000Y-59000000D03*
%TD*%
D10*
%TO.P,D16,1*%
%TO.N,N/C*%
X155350000Y-40000000D03*
%TO.P,D16,2*%
%TO.N,middle_num*%
X158650000Y-40000000D03*
D11*
%TO.P,D16,1*%
%TO.N,N/C*%
X153190000Y-40000000D03*
D12*
%TO.P,D16,2*%
%TO.N,middle_num*%
X160810000Y-40000000D03*
%TD*%
D10*
%TO.P,D17,1*%
%TO.N,N/C*%
X174350000Y-100000000D03*
%TO.P,D17,2*%
%TO.N,index_bottom*%
X177650000Y-100000000D03*
D11*
%TO.P,D17,1*%
%TO.N,N/C*%
X172190000Y-100000000D03*
D12*
%TO.P,D17,2*%
%TO.N,index_bottom*%
X179810000Y-100000000D03*
%TD*%
D10*
%TO.P,D18,1*%
%TO.N,N/C*%
X174350000Y-81000000D03*
%TO.P,D18,2*%
%TO.N,index_home*%
X177650000Y-81000000D03*
D11*
%TO.P,D18,1*%
%TO.N,N/C*%
X172190000Y-81000000D03*
D12*
%TO.P,D18,2*%
%TO.N,index_home*%
X179810000Y-81000000D03*
%TD*%
D10*
%TO.P,D19,1*%
%TO.N,N/C*%
X174350000Y-62000000D03*
%TO.P,D19,2*%
%TO.N,index_top*%
X177650000Y-62000000D03*
D11*
%TO.P,D19,1*%
%TO.N,N/C*%
X172190000Y-62000000D03*
D12*
%TO.P,D19,2*%
%TO.N,index_top*%
X179810000Y-62000000D03*
%TD*%
D10*
%TO.P,D20,1*%
%TO.N,N/C*%
X174350000Y-43000000D03*
%TO.P,D20,2*%
%TO.N,index_num*%
X177650000Y-43000000D03*
D11*
%TO.P,D20,1*%
%TO.N,N/C*%
X172190000Y-43000000D03*
D12*
%TO.P,D20,2*%
%TO.N,index_num*%
X179810000Y-43000000D03*
%TD*%
D10*
%TO.P,D21,1*%
%TO.N,N/C*%
X193350000Y-103000000D03*
%TO.P,D21,2*%
%TO.N,inner_bottom*%
X196650000Y-103000000D03*
D11*
%TO.P,D21,1*%
%TO.N,N/C*%
X191190000Y-103000000D03*
D12*
%TO.P,D21,2*%
%TO.N,inner_bottom*%
X198810000Y-103000000D03*
%TD*%
D10*
%TO.P,D22,1*%
%TO.N,N/C*%
X193350000Y-84000000D03*
%TO.P,D22,2*%
%TO.N,inner_home*%
X196650000Y-84000000D03*
D11*
%TO.P,D22,1*%
%TO.N,N/C*%
X191190000Y-84000000D03*
D12*
%TO.P,D22,2*%
%TO.N,inner_home*%
X198810000Y-84000000D03*
%TD*%
D10*
%TO.P,D23,1*%
%TO.N,N/C*%
X193350000Y-65000000D03*
%TO.P,D23,2*%
%TO.N,inner_top*%
X196650000Y-65000000D03*
D11*
%TO.P,D23,1*%
%TO.N,N/C*%
X191190000Y-65000000D03*
D12*
%TO.P,D23,2*%
%TO.N,inner_top*%
X198810000Y-65000000D03*
%TD*%
D10*
%TO.P,D24,1*%
%TO.N,N/C*%
X193350000Y-46000000D03*
%TO.P,D24,2*%
%TO.N,inner_num*%
X196650000Y-46000000D03*
D11*
%TO.P,D24,1*%
%TO.N,N/C*%
X191190000Y-46000000D03*
D12*
%TO.P,D24,2*%
%TO.N,inner_num*%
X198810000Y-46000000D03*
%TD*%
D10*
%TO.P,D25,1*%
%TO.N,N/C*%
X212350000Y-107500000D03*
%TO.P,D25,2*%
%TO.N,right_bottom*%
X215650000Y-107500000D03*
D11*
%TO.P,D25,1*%
%TO.N,N/C*%
X210190000Y-107500000D03*
D12*
%TO.P,D25,2*%
%TO.N,right_bottom*%
X217810000Y-107500000D03*
%TD*%
D10*
%TO.P,D26,1*%
%TO.N,N/C*%
X212350000Y-88500000D03*
%TO.P,D26,2*%
%TO.N,right_home*%
X215650000Y-88500000D03*
D11*
%TO.P,D26,1*%
%TO.N,N/C*%
X210190000Y-88500000D03*
D12*
%TO.P,D26,2*%
%TO.N,right_home*%
X217810000Y-88500000D03*
%TD*%
D10*
%TO.P,D27,1*%
%TO.N,N/C*%
X212350000Y-69500000D03*
%TO.P,D27,2*%
%TO.N,right_top*%
X215650000Y-69500000D03*
D11*
%TO.P,D27,1*%
%TO.N,N/C*%
X210190000Y-69500000D03*
D12*
%TO.P,D27,2*%
%TO.N,right_top*%
X217810000Y-69500000D03*
%TD*%
D10*
%TO.P,D28,1*%
%TO.N,N/C*%
X212350000Y-50500000D03*
%TO.P,D28,2*%
%TO.N,right_num*%
X215650000Y-50500000D03*
D11*
%TO.P,D28,1*%
%TO.N,N/C*%
X210190000Y-50500000D03*
D12*
%TO.P,D28,2*%
%TO.N,right_num*%
X217810000Y-50500000D03*
%TD*%
D10*
%TO.P,D29,1*%
%TO.N,N/C*%
X150850000Y-120000000D03*
%TO.P,D29,2*%
%TO.N,left_thumb*%
X154150000Y-120000000D03*
D11*
%TO.P,D29,1*%
%TO.N,N/C*%
X148690000Y-120000000D03*
D12*
%TO.P,D29,2*%
%TO.N,left_thumb*%
X156310000Y-120000000D03*
%TD*%
D13*
%TO.P,D30,1*%
%TO.N,N/C*%
X170166849Y-120742972D03*
%TO.P,D30,2*%
%TO.N,home_thumb*%
X173454291Y-121030586D03*
D14*
%TO.P,D30,1*%
%TO.N,N/C*%
X168015068Y-120554716D03*
D12*
%TO.P,D30,2*%
%TO.N,home_thumb*%
X175606072Y-121218842D03*
%TD*%
D15*
%TO.P,D31,1*%
%TO.N,N/C*%
X189351130Y-123123445D03*
%TO.P,D31,2*%
%TO.N,far_thumb*%
X192600996Y-123696483D03*
D16*
%TO.P,D31,1*%
%TO.N,N/C*%
X187223945Y-122748364D03*
D12*
%TO.P,D31,2*%
%TO.N,far_thumb*%
X194728181Y-124071564D03*
%TD*%
D17*
%TO.P,D32,1*%
%TO.N,N/C*%
X208385152Y-128331258D03*
%TO.P,D32,2*%
%TO.N,out_thumb*%
X211444858Y-129567460D03*
D18*
%TO.P,D32,1*%
%TO.N,N/C*%
X206382435Y-127522108D03*
D12*
%TO.P,D32,2*%
%TO.N,out_thumb*%
X213447575Y-130376610D03*
%TD*%
D19*
%TO.P,MCU1,1*%
%TO.N,RAW*%
X126620000Y-38030000D03*
D20*
%TO.P,MCU1,2*%
%TO.N,GND*%
X126620000Y-40570000D03*
%TO.P,MCU1,3*%
%TO.N,RST*%
X126620000Y-43110000D03*
%TO.P,MCU1,4*%
%TO.N,VCC*%
X126620000Y-45650000D03*
%TO.P,MCU1,5*%
%TO.N,P21*%
X126620000Y-48190000D03*
%TO.P,MCU1,6*%
%TO.N,P20*%
X126620000Y-50730000D03*
%TO.P,MCU1,7*%
%TO.N,P19*%
X126620000Y-53270000D03*
%TO.P,MCU1,8*%
%TO.N,P18*%
X126620000Y-55810000D03*
%TO.P,MCU1,9*%
%TO.N,P15*%
X126620000Y-58350000D03*
%TO.P,MCU1,10*%
%TO.N,P14*%
X126620000Y-60890000D03*
%TO.P,MCU1,11*%
%TO.N,P16*%
X126620000Y-63430000D03*
%TO.P,MCU1,12*%
%TO.N,P10*%
X126620000Y-65970000D03*
%TO.P,MCU1,13*%
%TO.N,P1*%
X111380000Y-38030000D03*
%TO.P,MCU1,14*%
%TO.N,P0*%
X111380000Y-40570000D03*
%TO.P,MCU1,15*%
%TO.N,GND*%
X111380000Y-43110000D03*
%TO.P,MCU1,16*%
X111380000Y-45650000D03*
%TO.P,MCU1,17*%
%TO.N,P2*%
X111380000Y-48190000D03*
%TO.P,MCU1,18*%
%TO.N,P3*%
X111380000Y-50730000D03*
%TO.P,MCU1,19*%
%TO.N,P4*%
X111380000Y-53270000D03*
%TO.P,MCU1,20*%
%TO.N,P5*%
X111380000Y-55810000D03*
%TO.P,MCU1,21*%
%TO.N,P6*%
X111380000Y-58350000D03*
%TO.P,MCU1,22*%
%TO.N,P7*%
X111380000Y-60890000D03*
%TO.P,MCU1,23*%
%TO.N,P8*%
X111380000Y-63430000D03*
%TO.P,MCU1,24*%
%TO.N,P9*%
X111380000Y-65970000D03*
%TD*%
M02*
