%TF.GenerationSoftware,KiCad,Pcbnew,8.0.6*%
%TF.CreationDate,2024-11-09T22:39:55-08:00*%
%TF.ProjectId,altair,616c7461-6972-42e6-9b69-6361645f7063,v1.0.0*%
%TF.SameCoordinates,Original*%
%TF.FileFunction,Soldermask,Bot*%
%TF.FilePolarity,Negative*%
%FSLAX46Y46*%
G04 Gerber Fmt 4.6, Leading zero omitted, Abs format (unit mm)*
G04 Created by KiCad (PCBNEW 8.0.6) date 2024-11-09 22:39:55*
%MOMM*%
%LPD*%
G01*
G04 APERTURE LIST*
G04 Aperture macros list*
%AMRoundRect*
0 Rectangle with rounded corners*
0 $1 Rounding radius*
0 $2 $3 $4 $5 $6 $7 $8 $9 X,Y pos of 4 corners*
0 Add a 4 corners polygon primitive as box body*
4,1,4,$2,$3,$4,$5,$6,$7,$8,$9,$2,$3,0*
0 Add four circle primitives for the rounded corners*
1,1,$1+$1,$2,$3*
1,1,$1+$1,$4,$5*
1,1,$1+$1,$6,$7*
1,1,$1+$1,$8,$9*
0 Add four rect primitives between the rounded corners*
20,1,$1+$1,$2,$3,$4,$5,0*
20,1,$1+$1,$4,$5,$6,$7,0*
20,1,$1+$1,$6,$7,$8,$9,0*
20,1,$1+$1,$8,$9,$2,$3,0*%
G04 Aperture macros list end*
%ADD10C,4.087800*%
%ADD11C,1.801800*%
%ADD12C,3.100000*%
%ADD13RoundRect,0.050000X-1.275000X-1.250000X1.275000X-1.250000X1.275000X1.250000X-1.275000X1.250000X0*%
%ADD14RoundRect,0.050000X-1.379093X-1.134120X1.161204X-1.356367X1.379093X1.134120X-1.161204X1.356367X0*%
%ADD15RoundRect,0.050000X-1.472690X-1.009608X1.038570X-1.452411X1.472690X1.009608X-1.038570X1.452411X0*%
%ADD16RoundRect,0.050000X-1.650418X-0.681356X0.713901X-1.636603X1.650418X0.681356X-0.713901X1.636603X0*%
%ADD17RoundRect,0.050000X-0.450000X-0.600000X0.450000X-0.600000X0.450000X0.600000X-0.450000X0.600000X0*%
%ADD18RoundRect,0.050000X-0.889000X-0.889000X0.889000X-0.889000X0.889000X0.889000X-0.889000X0.889000X0*%
%ADD19C,2.005000*%
%ADD20RoundRect,0.050000X-0.500581X-0.558497X0.395994X-0.636937X0.500581X0.558497X-0.395994X0.636937X0*%
%ADD21RoundRect,0.050000X-0.963099X-0.808136X0.808136X-0.963099X0.963099X0.808136X-0.808136X0.963099X0*%
%ADD22RoundRect,0.050000X-0.547352X-0.512743X0.338975X-0.669026X0.547352X0.512743X-0.338975X0.669026X0*%
%ADD23RoundRect,0.050000X-1.029867X-0.721121X0.721121X-1.029867X1.029867X0.721121X-0.721121X1.029867X0*%
%ADD24RoundRect,0.050000X-0.641997X-0.387737X0.192469X-0.724883X0.641997X0.387737X-0.192469X0.724883X0*%
%ADD25RoundRect,0.050000X-1.157292X-0.491241X0.491241X-1.157292X1.157292X0.491241X-0.491241X1.157292X0*%
%ADD26RoundRect,0.050000X-0.876300X0.876300X-0.876300X-0.876300X0.876300X-0.876300X0.876300X0.876300X0*%
%ADD27C,1.852600*%
G04 APERTURE END LIST*
D10*
%TO.C,S1*%
X100000000Y-100000000D03*
D11*
X105080000Y-100000000D03*
X94920000Y-100000000D03*
D12*
X102540000Y-94920000D03*
X96190000Y-97460000D03*
D13*
X92915000Y-97460000D03*
X105842000Y-94920000D03*
%TD*%
D10*
%TO.C,S2*%
X100000000Y-81000000D03*
D11*
X105080000Y-81000000D03*
X94920000Y-81000000D03*
D12*
X102540000Y-75920000D03*
X96190000Y-78460000D03*
D13*
X92915000Y-78460000D03*
X105842000Y-75920000D03*
%TD*%
D10*
%TO.C,S3*%
X100000000Y-62000000D03*
D11*
X105080000Y-62000000D03*
X94920000Y-62000000D03*
D12*
X102540000Y-56920000D03*
X96190000Y-59460000D03*
D13*
X92915000Y-59460000D03*
X105842000Y-56920000D03*
%TD*%
D10*
%TO.C,S4*%
X100000000Y-43000000D03*
D11*
X105080000Y-43000000D03*
X94920000Y-43000000D03*
D12*
X102540000Y-37920000D03*
X96190000Y-40460000D03*
D13*
X92915000Y-40460000D03*
X105842000Y-37920000D03*
%TD*%
D10*
%TO.C,S5*%
X119000000Y-100000000D03*
D11*
X124080000Y-100000000D03*
X113920000Y-100000000D03*
D12*
X121540000Y-94920000D03*
X115190000Y-97460000D03*
D13*
X111915000Y-97460000D03*
X124842000Y-94920000D03*
%TD*%
D10*
%TO.C,S6*%
X119000000Y-81000000D03*
D11*
X124080000Y-81000000D03*
X113920000Y-81000000D03*
D12*
X121540000Y-75920000D03*
X115190000Y-78460000D03*
D13*
X111915000Y-78460000D03*
X124842000Y-75920000D03*
%TD*%
D10*
%TO.C,S7*%
X119000000Y-62000000D03*
D11*
X124080000Y-62000000D03*
X113920000Y-62000000D03*
D12*
X121540000Y-56920000D03*
X115190000Y-59460000D03*
D13*
X111915000Y-59460000D03*
X124842000Y-56920000D03*
%TD*%
D10*
%TO.C,S8*%
X119000000Y-43000000D03*
D11*
X124080000Y-43000000D03*
X113920000Y-43000000D03*
D12*
X121540000Y-37920000D03*
X115190000Y-40460000D03*
D13*
X111915000Y-40460000D03*
X124842000Y-37920000D03*
%TD*%
D10*
%TO.C,S9*%
X138000000Y-95000000D03*
D11*
X143080000Y-95000000D03*
X132920000Y-95000000D03*
D12*
X140540000Y-89920000D03*
X134190000Y-92460000D03*
D13*
X130915000Y-92460000D03*
X143842000Y-89920000D03*
%TD*%
D10*
%TO.C,S10*%
X138000000Y-76000000D03*
D11*
X143080000Y-76000000D03*
X132920000Y-76000000D03*
D12*
X140540000Y-70920000D03*
X134190000Y-73460000D03*
D13*
X130915000Y-73460000D03*
X143842000Y-70920000D03*
%TD*%
D10*
%TO.C,S11*%
X138000000Y-57000000D03*
D11*
X143080000Y-57000000D03*
X132920000Y-57000000D03*
D12*
X140540000Y-51920000D03*
X134190000Y-54460000D03*
D13*
X130915000Y-54460000D03*
X143842000Y-51920000D03*
%TD*%
D10*
%TO.C,S12*%
X138000000Y-38000000D03*
D11*
X143080000Y-38000000D03*
X132920000Y-38000000D03*
D12*
X140540000Y-32920000D03*
X134190000Y-35460000D03*
D13*
X130915000Y-35460000D03*
X143842000Y-32920000D03*
%TD*%
D10*
%TO.C,S13*%
X157000000Y-92000000D03*
D11*
X162080000Y-92000000D03*
X151920000Y-92000000D03*
D12*
X159540000Y-86920000D03*
X153190000Y-89460000D03*
D13*
X149915000Y-89460000D03*
X162842000Y-86920000D03*
%TD*%
D10*
%TO.C,S14*%
X157000000Y-73000000D03*
D11*
X162080000Y-73000000D03*
X151920000Y-73000000D03*
D12*
X159540000Y-67920000D03*
X153190000Y-70460000D03*
D13*
X149915000Y-70460000D03*
X162842000Y-67920000D03*
%TD*%
D10*
%TO.C,S15*%
X157000000Y-54000000D03*
D11*
X162080000Y-54000000D03*
X151920000Y-54000000D03*
D12*
X159540000Y-48920000D03*
X153190000Y-51460000D03*
D13*
X149915000Y-51460000D03*
X162842000Y-48920000D03*
%TD*%
D10*
%TO.C,S16*%
X157000000Y-35000000D03*
D11*
X162080000Y-35000000D03*
X151920000Y-35000000D03*
D12*
X159540000Y-29920000D03*
X153190000Y-32460000D03*
D13*
X149915000Y-32460000D03*
X162842000Y-29920000D03*
%TD*%
D10*
%TO.C,S17*%
X176000000Y-95000000D03*
D11*
X181080000Y-95000000D03*
X170920000Y-95000000D03*
D12*
X178540000Y-89920000D03*
X172190000Y-92460000D03*
D13*
X168915000Y-92460000D03*
X181842000Y-89920000D03*
%TD*%
D10*
%TO.C,S18*%
X176000000Y-76000000D03*
D11*
X181080000Y-76000000D03*
X170920000Y-76000000D03*
D12*
X178540000Y-70920000D03*
X172190000Y-73460000D03*
D13*
X168915000Y-73460000D03*
X181842000Y-70920000D03*
%TD*%
D10*
%TO.C,S19*%
X176000000Y-57000000D03*
D11*
X181080000Y-57000000D03*
X170920000Y-57000000D03*
D12*
X178540000Y-51920000D03*
X172190000Y-54460000D03*
D13*
X168915000Y-54460000D03*
X181842000Y-51920000D03*
%TD*%
D10*
%TO.C,S20*%
X176000000Y-38000000D03*
D11*
X181080000Y-38000000D03*
X170920000Y-38000000D03*
D12*
X178540000Y-32920000D03*
X172190000Y-35460000D03*
D13*
X168915000Y-35460000D03*
X181842000Y-32920000D03*
%TD*%
D10*
%TO.C,S21*%
X195000000Y-98000000D03*
D11*
X200080000Y-98000000D03*
X189920000Y-98000000D03*
D12*
X197540000Y-92920000D03*
X191190000Y-95460000D03*
D13*
X187915000Y-95460000D03*
X200842000Y-92920000D03*
%TD*%
D10*
%TO.C,S22*%
X195000000Y-79000000D03*
D11*
X200080000Y-79000000D03*
X189920000Y-79000000D03*
D12*
X197540000Y-73920000D03*
X191190000Y-76460000D03*
D13*
X187915000Y-76460000D03*
X200842000Y-73920000D03*
%TD*%
D10*
%TO.C,S23*%
X195000000Y-60000000D03*
D11*
X200080000Y-60000000D03*
X189920000Y-60000000D03*
D12*
X197540000Y-54920000D03*
X191190000Y-57460000D03*
D13*
X187915000Y-57460000D03*
X200842000Y-54920000D03*
%TD*%
D10*
%TO.C,S24*%
X195000000Y-41000000D03*
D11*
X200080000Y-41000000D03*
X189920000Y-41000000D03*
D12*
X197540000Y-35920000D03*
X191190000Y-38460000D03*
D13*
X187915000Y-38460000D03*
X200842000Y-35920000D03*
%TD*%
D10*
%TO.C,S25*%
X214000000Y-102500000D03*
D11*
X219080000Y-102500000D03*
X208920000Y-102500000D03*
D12*
X216540000Y-97420000D03*
X210190000Y-99960000D03*
D13*
X206915000Y-99960000D03*
X219842000Y-97420000D03*
%TD*%
D10*
%TO.C,S26*%
X214000000Y-83500000D03*
D11*
X219080000Y-83500000D03*
X208920000Y-83500000D03*
D12*
X216540000Y-78420000D03*
X210190000Y-80960000D03*
D13*
X206915000Y-80960000D03*
X219842000Y-78420000D03*
%TD*%
D10*
%TO.C,S27*%
X214000000Y-64500000D03*
D11*
X219080000Y-64500000D03*
X208920000Y-64500000D03*
D12*
X216540000Y-59420000D03*
X210190000Y-61960000D03*
D13*
X206915000Y-61960000D03*
X219842000Y-59420000D03*
%TD*%
D10*
%TO.C,S28*%
X214000000Y-45500000D03*
D11*
X219080000Y-45500000D03*
X208920000Y-45500000D03*
D12*
X216540000Y-40420000D03*
X210190000Y-42960000D03*
D13*
X206915000Y-42960000D03*
X219842000Y-40420000D03*
%TD*%
D10*
%TO.C,S29*%
X152500000Y-115000000D03*
D11*
X157580000Y-115000000D03*
X147420000Y-115000000D03*
D12*
X155040000Y-109920000D03*
X148690000Y-112460000D03*
D13*
X145415000Y-112460000D03*
X158342000Y-109920000D03*
%TD*%
D10*
%TO.C,S30*%
X172246349Y-115905805D03*
D11*
X177307018Y-116348556D03*
X167185680Y-115463054D03*
D12*
X175219435Y-111066512D03*
X168672223Y-113043407D03*
D14*
X165409685Y-112757972D03*
X178508870Y-111354300D03*
%TD*%
D10*
%TO.C,S31*%
X191844304Y-118485925D03*
D11*
X196847127Y-119368058D03*
X186841481Y-117603792D03*
D12*
X195227848Y-113924168D03*
X188533253Y-115322914D03*
D15*
X185308007Y-114754216D03*
X198479684Y-114497554D03*
%TD*%
D10*
%TO.C,S32*%
X211788038Y-124313440D03*
D11*
X216498132Y-126216441D03*
X207077944Y-122410439D03*
D12*
X216046086Y-120554847D03*
X209206968Y-120531142D03*
D16*
X206170441Y-119304305D03*
X219107648Y-121791798D03*
%TD*%
D17*
%TO.C,D1*%
X101650000Y-105000000D03*
X98350000Y-105000000D03*
D18*
X96190000Y-105000000D03*
D19*
X103810000Y-105000000D03*
%TD*%
D17*
%TO.C,D2*%
X101650000Y-86000000D03*
X98350000Y-86000000D03*
D18*
X96190000Y-86000000D03*
D19*
X103810000Y-86000000D03*
%TD*%
D17*
%TO.C,D3*%
X101650000Y-67000000D03*
X98350000Y-67000000D03*
D18*
X96190000Y-67000000D03*
D19*
X103810000Y-67000000D03*
%TD*%
D17*
%TO.C,D4*%
X101650000Y-48000000D03*
X98350000Y-48000000D03*
D18*
X96190000Y-48000000D03*
D19*
X103810000Y-48000000D03*
%TD*%
D17*
%TO.C,D5*%
X120650000Y-105000000D03*
X117350000Y-105000000D03*
D18*
X115190000Y-105000000D03*
D19*
X122810000Y-105000000D03*
%TD*%
D17*
%TO.C,D6*%
X120650000Y-86000000D03*
X117350000Y-86000000D03*
D18*
X115190000Y-86000000D03*
D19*
X122810000Y-86000000D03*
%TD*%
D17*
%TO.C,D7*%
X120650000Y-67000000D03*
X117350000Y-67000000D03*
D18*
X115190000Y-67000000D03*
D19*
X122810000Y-67000000D03*
%TD*%
D17*
%TO.C,D8*%
X120650000Y-48000000D03*
X117350000Y-48000000D03*
D18*
X115190000Y-48000000D03*
D19*
X122810000Y-48000000D03*
%TD*%
D17*
%TO.C,D9*%
X139650000Y-100000000D03*
X136350000Y-100000000D03*
D18*
X134190000Y-100000000D03*
D19*
X141810000Y-100000000D03*
%TD*%
D17*
%TO.C,D10*%
X139650000Y-81000000D03*
X136350000Y-81000000D03*
D18*
X134190000Y-81000000D03*
D19*
X141810000Y-81000000D03*
%TD*%
D17*
%TO.C,D11*%
X139650000Y-62000000D03*
X136350000Y-62000000D03*
D18*
X134190000Y-62000000D03*
D19*
X141810000Y-62000000D03*
%TD*%
D17*
%TO.C,D12*%
X139650000Y-43000000D03*
X136350000Y-43000000D03*
D18*
X134190000Y-43000000D03*
D19*
X141810000Y-43000000D03*
%TD*%
D17*
%TO.C,D13*%
X158650000Y-97000000D03*
X155350000Y-97000000D03*
D18*
X153190000Y-97000000D03*
D19*
X160810000Y-97000000D03*
%TD*%
D17*
%TO.C,D14*%
X158650000Y-78000000D03*
X155350000Y-78000000D03*
D18*
X153190000Y-78000000D03*
D19*
X160810000Y-78000000D03*
%TD*%
D17*
%TO.C,D15*%
X158650000Y-59000000D03*
X155350000Y-59000000D03*
D18*
X153190000Y-59000000D03*
D19*
X160810000Y-59000000D03*
%TD*%
D17*
%TO.C,D16*%
X158650000Y-40000000D03*
X155350000Y-40000000D03*
D18*
X153190000Y-40000000D03*
D19*
X160810000Y-40000000D03*
%TD*%
D17*
%TO.C,D17*%
X177650000Y-100000000D03*
X174350000Y-100000000D03*
D18*
X172190000Y-100000000D03*
D19*
X179810000Y-100000000D03*
%TD*%
D17*
%TO.C,D18*%
X177650000Y-81000000D03*
X174350000Y-81000000D03*
D18*
X172190000Y-81000000D03*
D19*
X179810000Y-81000000D03*
%TD*%
D17*
%TO.C,D19*%
X177650000Y-62000000D03*
X174350000Y-62000000D03*
D18*
X172190000Y-62000000D03*
D19*
X179810000Y-62000000D03*
%TD*%
D17*
%TO.C,D20*%
X177650000Y-43000000D03*
X174350000Y-43000000D03*
D18*
X172190000Y-43000000D03*
D19*
X179810000Y-43000000D03*
%TD*%
D17*
%TO.C,D21*%
X196650000Y-103000000D03*
X193350000Y-103000000D03*
D18*
X191190000Y-103000000D03*
D19*
X198810000Y-103000000D03*
%TD*%
D17*
%TO.C,D22*%
X196650000Y-84000000D03*
X193350000Y-84000000D03*
D18*
X191190000Y-84000000D03*
D19*
X198810000Y-84000000D03*
%TD*%
D17*
%TO.C,D23*%
X196650000Y-65000000D03*
X193350000Y-65000000D03*
D18*
X191190000Y-65000000D03*
D19*
X198810000Y-65000000D03*
%TD*%
D17*
%TO.C,D24*%
X196650000Y-46000000D03*
X193350000Y-46000000D03*
D18*
X191190000Y-46000000D03*
D19*
X198810000Y-46000000D03*
%TD*%
D17*
%TO.C,D25*%
X215650000Y-107500000D03*
X212350000Y-107500000D03*
D18*
X210190000Y-107500000D03*
D19*
X217810000Y-107500000D03*
%TD*%
D17*
%TO.C,D26*%
X215650000Y-88500000D03*
X212350000Y-88500000D03*
D18*
X210190000Y-88500000D03*
D19*
X217810000Y-88500000D03*
%TD*%
D17*
%TO.C,D27*%
X215650000Y-69500000D03*
X212350000Y-69500000D03*
D18*
X210190000Y-69500000D03*
D19*
X217810000Y-69500000D03*
%TD*%
D17*
%TO.C,D28*%
X215650000Y-50500000D03*
X212350000Y-50500000D03*
D18*
X210190000Y-50500000D03*
D19*
X217810000Y-50500000D03*
%TD*%
D17*
%TO.C,D29*%
X154150000Y-120000000D03*
X150850000Y-120000000D03*
D18*
X148690000Y-120000000D03*
D19*
X156310000Y-120000000D03*
%TD*%
D20*
%TO.C,D30*%
X173454291Y-121030586D03*
X170166849Y-120742972D03*
D21*
X168015068Y-120554716D03*
D19*
X175606072Y-121218842D03*
%TD*%
D22*
%TO.C,D31*%
X192600996Y-123696483D03*
X189351130Y-123123445D03*
D23*
X187223945Y-122748364D03*
D19*
X194728181Y-124071564D03*
%TD*%
D24*
%TO.C,D32*%
X211444858Y-129567460D03*
X208385152Y-128331258D03*
D25*
X206382435Y-127522108D03*
D19*
X213447575Y-130376610D03*
%TD*%
D26*
%TO.C,MCU1*%
X126620000Y-38030000D03*
D27*
X126620000Y-40570000D03*
X126620000Y-43110000D03*
X126620000Y-45650000D03*
X126620000Y-48190000D03*
X126620000Y-50730000D03*
X126620000Y-53270000D03*
X126620000Y-55810000D03*
X126620000Y-58350000D03*
X126620000Y-60890000D03*
X126620000Y-63430000D03*
X126620000Y-65970000D03*
X111380000Y-38030000D03*
X111380000Y-40570000D03*
X111380000Y-43110000D03*
X111380000Y-45650000D03*
X111380000Y-48190000D03*
X111380000Y-50730000D03*
X111380000Y-53270000D03*
X111380000Y-55810000D03*
X111380000Y-58350000D03*
X111380000Y-60890000D03*
X111380000Y-63430000D03*
X111380000Y-65970000D03*
%TD*%
M02*
