%TF.GenerationSoftware,KiCad,Pcbnew,8.0.6*%
%TF.CreationDate,2024-11-09T22:39:55-08:00*%
%TF.ProjectId,altair,616c7461-6972-42e6-9b69-6361645f7063,v1.0.0*%
%TF.SameCoordinates,Original*%
%TF.FileFunction,Paste,Bot*%
%TF.FilePolarity,Positive*%
%FSLAX46Y46*%
G04 Gerber Fmt 4.6, Leading zero omitted, Abs format (unit mm)*
G04 Created by KiCad (PCBNEW 8.0.6) date 2024-11-09 22:39:55*
%MOMM*%
%LPD*%
G01*
G04 APERTURE LIST*
G04 Aperture macros list*
%AMRotRect*
0 Rectangle, with rotation*
0 The origin of the aperture is its center*
0 $1 length*
0 $2 width*
0 $3 Rotation angle, in degrees counterclockwise*
0 Add horizontal line*
21,1,$1,$2,0,0,$3*%
G04 Aperture macros list end*
%ADD10R,2.550000X2.500000*%
%ADD11RotRect,2.550000X2.500000X355.000000*%
%ADD12RotRect,2.550000X2.500000X350.000000*%
%ADD13RotRect,2.550000X2.500000X338.000000*%
%ADD14R,0.900000X1.200000*%
%ADD15RotRect,0.900000X1.200000X355.000000*%
%ADD16RotRect,0.900000X1.200000X350.000000*%
%ADD17RotRect,0.900000X1.200000X338.000000*%
G04 APERTURE END LIST*
D10*
%TO.C,S1*%
X92915000Y-97460000D03*
X105842000Y-94920000D03*
%TD*%
%TO.C,S2*%
X92915000Y-78460000D03*
X105842000Y-75920000D03*
%TD*%
%TO.C,S3*%
X92915000Y-59460000D03*
X105842000Y-56920000D03*
%TD*%
%TO.C,S4*%
X92915000Y-40460000D03*
X105842000Y-37920000D03*
%TD*%
%TO.C,S5*%
X111915000Y-97460000D03*
X124842000Y-94920000D03*
%TD*%
%TO.C,S6*%
X111915000Y-78460000D03*
X124842000Y-75920000D03*
%TD*%
%TO.C,S7*%
X111915000Y-59460000D03*
X124842000Y-56920000D03*
%TD*%
%TO.C,S8*%
X111915000Y-40460000D03*
X124842000Y-37920000D03*
%TD*%
%TO.C,S9*%
X130915000Y-92460000D03*
X143842000Y-89920000D03*
%TD*%
%TO.C,S10*%
X130915000Y-73460000D03*
X143842000Y-70920000D03*
%TD*%
%TO.C,S11*%
X130915000Y-54460000D03*
X143842000Y-51920000D03*
%TD*%
%TO.C,S12*%
X130915000Y-35460000D03*
X143842000Y-32920000D03*
%TD*%
%TO.C,S13*%
X149915000Y-89460000D03*
X162842000Y-86920000D03*
%TD*%
%TO.C,S14*%
X149915000Y-70460000D03*
X162842000Y-67920000D03*
%TD*%
%TO.C,S15*%
X149915000Y-51460000D03*
X162842000Y-48920000D03*
%TD*%
%TO.C,S16*%
X149915000Y-32460000D03*
X162842000Y-29920000D03*
%TD*%
%TO.C,S17*%
X168915000Y-92460000D03*
X181842000Y-89920000D03*
%TD*%
%TO.C,S18*%
X168915000Y-73460000D03*
X181842000Y-70920000D03*
%TD*%
%TO.C,S19*%
X168915000Y-54460000D03*
X181842000Y-51920000D03*
%TD*%
%TO.C,S20*%
X168915000Y-35460000D03*
X181842000Y-32920000D03*
%TD*%
%TO.C,S21*%
X187915000Y-95460000D03*
X200842000Y-92920000D03*
%TD*%
%TO.C,S22*%
X187915000Y-76460000D03*
X200842000Y-73920000D03*
%TD*%
%TO.C,S23*%
X187915000Y-57460000D03*
X200842000Y-54920000D03*
%TD*%
%TO.C,S24*%
X187915000Y-38460000D03*
X200842000Y-35920000D03*
%TD*%
%TO.C,S25*%
X206915000Y-99960000D03*
X219842000Y-97420000D03*
%TD*%
%TO.C,S26*%
X206915000Y-80960000D03*
X219842000Y-78420000D03*
%TD*%
%TO.C,S27*%
X206915000Y-61960000D03*
X219842000Y-59420000D03*
%TD*%
%TO.C,S28*%
X206915000Y-42960000D03*
X219842000Y-40420000D03*
%TD*%
%TO.C,S29*%
X145415000Y-112460000D03*
X158342000Y-109920000D03*
%TD*%
D11*
%TO.C,S30*%
X165409685Y-112757972D03*
X178508870Y-111354300D03*
%TD*%
D12*
%TO.C,S31*%
X185308007Y-114754216D03*
X198479684Y-114497554D03*
%TD*%
D13*
%TO.C,S32*%
X206170441Y-119304305D03*
X219107648Y-121791798D03*
%TD*%
D14*
%TO.C,D1*%
X101650000Y-105000000D03*
X98350000Y-105000000D03*
%TD*%
%TO.C,D2*%
X101650000Y-86000000D03*
X98350000Y-86000000D03*
%TD*%
%TO.C,D3*%
X101650000Y-67000000D03*
X98350000Y-67000000D03*
%TD*%
%TO.C,D4*%
X101650000Y-48000000D03*
X98350000Y-48000000D03*
%TD*%
%TO.C,D5*%
X120650000Y-105000000D03*
X117350000Y-105000000D03*
%TD*%
%TO.C,D6*%
X120650000Y-86000000D03*
X117350000Y-86000000D03*
%TD*%
%TO.C,D7*%
X120650000Y-67000000D03*
X117350000Y-67000000D03*
%TD*%
%TO.C,D8*%
X120650000Y-48000000D03*
X117350000Y-48000000D03*
%TD*%
%TO.C,D9*%
X139650000Y-100000000D03*
X136350000Y-100000000D03*
%TD*%
%TO.C,D10*%
X139650000Y-81000000D03*
X136350000Y-81000000D03*
%TD*%
%TO.C,D11*%
X139650000Y-62000000D03*
X136350000Y-62000000D03*
%TD*%
%TO.C,D12*%
X139650000Y-43000000D03*
X136350000Y-43000000D03*
%TD*%
%TO.C,D13*%
X158650000Y-97000000D03*
X155350000Y-97000000D03*
%TD*%
%TO.C,D14*%
X158650000Y-78000000D03*
X155350000Y-78000000D03*
%TD*%
%TO.C,D15*%
X158650000Y-59000000D03*
X155350000Y-59000000D03*
%TD*%
%TO.C,D16*%
X158650000Y-40000000D03*
X155350000Y-40000000D03*
%TD*%
%TO.C,D17*%
X177650000Y-100000000D03*
X174350000Y-100000000D03*
%TD*%
%TO.C,D18*%
X177650000Y-81000000D03*
X174350000Y-81000000D03*
%TD*%
%TO.C,D19*%
X177650000Y-62000000D03*
X174350000Y-62000000D03*
%TD*%
%TO.C,D20*%
X177650000Y-43000000D03*
X174350000Y-43000000D03*
%TD*%
%TO.C,D21*%
X196650000Y-103000000D03*
X193350000Y-103000000D03*
%TD*%
%TO.C,D22*%
X196650000Y-84000000D03*
X193350000Y-84000000D03*
%TD*%
%TO.C,D23*%
X196650000Y-65000000D03*
X193350000Y-65000000D03*
%TD*%
%TO.C,D24*%
X196650000Y-46000000D03*
X193350000Y-46000000D03*
%TD*%
%TO.C,D25*%
X215650000Y-107500000D03*
X212350000Y-107500000D03*
%TD*%
%TO.C,D26*%
X215650000Y-88500000D03*
X212350000Y-88500000D03*
%TD*%
%TO.C,D27*%
X215650000Y-69500000D03*
X212350000Y-69500000D03*
%TD*%
%TO.C,D28*%
X215650000Y-50500000D03*
X212350000Y-50500000D03*
%TD*%
%TO.C,D29*%
X154150000Y-120000000D03*
X150850000Y-120000000D03*
%TD*%
D15*
%TO.C,D30*%
X173454291Y-121030586D03*
X170166849Y-120742972D03*
%TD*%
D16*
%TO.C,D31*%
X192600996Y-123696483D03*
X189351130Y-123123445D03*
%TD*%
D17*
%TO.C,D32*%
X211444858Y-129567460D03*
X208385152Y-128331258D03*
%TD*%
M02*
