0
SECTION
2
HEADER
9
$INSUNITS
70
4
0
ENDSEC
0
SECTION
2
TABLES
0
TABLE
2
LTYPE
0
LTYPE
72
65
70
64
2
CONTINUOUS
3
______
73
0
40
0
0
ENDTAB
0
TABLE
2
LAYER
0
ENDTAB
0
ENDSEC
0
SECTION
2
ENTITIES
0
LINE
8
0
10
90.75
20
-109.25
11
109.25
21
-109.25
0
LINE
8
0
10
109.25
20
-109.25
11
109.25
21
-90.75
0
LINE
8
0
10
109.25
20
-90.75
11
90.75
21
-90.75
0
LINE
8
0
10
90.75
20
-90.75
11
90.75
21
-109.25
0
LINE
8
0
10
90.75
20
-90.25
11
109.25
21
-90.25
0
LINE
8
0
10
109.25
20
-90.25
11
109.25
21
-71.75
0
LINE
8
0
10
109.25
20
-71.75
11
90.75
21
-71.75
0
LINE
8
0
10
90.75
20
-71.75
11
90.75
21
-90.25
0
LINE
8
0
10
90.75
20
-71.25
11
109.25
21
-71.25
0
LINE
8
0
10
109.25
20
-71.25
11
109.25
21
-52.75
0
LINE
8
0
10
109.25
20
-52.75
11
90.75
21
-52.75
0
LINE
8
0
10
90.75
20
-52.75
11
90.75
21
-71.25
0
LINE
8
0
10
90.75
20
-52.25
11
109.25
21
-52.25
0
LINE
8
0
10
109.25
20
-52.25
11
109.25
21
-33.75
0
LINE
8
0
10
109.25
20
-33.75
11
90.75
21
-33.75
0
LINE
8
0
10
90.75
20
-33.75
11
90.75
21
-52.25
0
LINE
8
0
10
109.75
20
-109.25
11
128.25
21
-109.25
0
LINE
8
0
10
128.25
20
-109.25
11
128.25
21
-90.75
0
LINE
8
0
10
128.25
20
-90.75
11
109.75
21
-90.75
0
LINE
8
0
10
109.75
20
-90.75
11
109.75
21
-109.25
0
LINE
8
0
10
109.75
20
-90.25
11
128.25
21
-90.25
0
LINE
8
0
10
128.25
20
-90.25
11
128.25
21
-71.75
0
LINE
8
0
10
128.25
20
-71.75
11
109.75
21
-71.75
0
LINE
8
0
10
109.75
20
-71.75
11
109.75
21
-90.25
0
LINE
8
0
10
109.75
20
-71.25
11
128.25
21
-71.25
0
LINE
8
0
10
128.25
20
-71.25
11
128.25
21
-52.75
0
LINE
8
0
10
128.25
20
-52.75
11
109.75
21
-52.75
0
LINE
8
0
10
109.75
20
-52.75
11
109.75
21
-71.25
0
LINE
8
0
10
109.75
20
-52.25
11
128.25
21
-52.25
0
LINE
8
0
10
128.25
20
-52.25
11
128.25
21
-33.75
0
LINE
8
0
10
128.25
20
-33.75
11
109.75
21
-33.75
0
LINE
8
0
10
109.75
20
-33.75
11
109.75
21
-52.25
0
LINE
8
0
10
128.75
20
-104.25
11
147.25
21
-104.25
0
LINE
8
0
10
147.25
20
-104.25
11
147.25
21
-85.75
0
LINE
8
0
10
147.25
20
-85.75
11
128.75
21
-85.75
0
LINE
8
0
10
128.75
20
-85.75
11
128.75
21
-104.25
0
LINE
8
0
10
128.75
20
-85.25
11
147.25
21
-85.25
0
LINE
8
0
10
147.25
20
-85.25
11
147.25
21
-66.75
0
LINE
8
0
10
147.25
20
-66.75
11
128.75
21
-66.75
0
LINE
8
0
10
128.75
20
-66.75
11
128.75
21
-85.25
0
LINE
8
0
10
128.75
20
-66.25
11
147.25
21
-66.25
0
LINE
8
0
10
147.25
20
-66.25
11
147.25
21
-47.75
0
LINE
8
0
10
147.25
20
-47.75
11
128.75
21
-47.75
0
LINE
8
0
10
128.75
20
-47.75
11
128.75
21
-66.25
0
LINE
8
0
10
128.75
20
-47.25
11
147.25
21
-47.25
0
LINE
8
0
10
147.25
20
-47.25
11
147.25
21
-28.75
0
LINE
8
0
10
147.25
20
-28.75
11
128.75
21
-28.75
0
LINE
8
0
10
128.75
20
-28.75
11
128.75
21
-47.25
0
LINE
8
0
10
147.75
20
-101.25
11
166.25
21
-101.25
0
LINE
8
0
10
166.25
20
-101.25
11
166.25
21
-82.75
0
LINE
8
0
10
166.25
20
-82.75
11
147.75
21
-82.75
0
LINE
8
0
10
147.75
20
-82.75
11
147.75
21
-101.25
0
LINE
8
0
10
147.75
20
-82.25
11
166.25
21
-82.25
0
LINE
8
0
10
166.25
20
-82.25
11
166.25
21
-63.75
0
LINE
8
0
10
166.25
20
-63.75
11
147.75
21
-63.75
0
LINE
8
0
10
147.75
20
-63.75
11
147.75
21
-82.25
0
LINE
8
0
10
147.75
20
-63.25
11
166.25
21
-63.25
0
LINE
8
0
10
166.25
20
-63.25
11
166.25
21
-44.75
0
LINE
8
0
10
166.25
20
-44.75
11
147.75
21
-44.75
0
LINE
8
0
10
147.75
20
-44.75
11
147.75
21
-63.25
0
LINE
8
0
10
147.75
20
-44.25
11
166.25
21
-44.25
0
LINE
8
0
10
166.25
20
-44.25
11
166.25
21
-25.75
0
LINE
8
0
10
166.25
20
-25.75
11
147.75
21
-25.75
0
LINE
8
0
10
147.75
20
-25.75
11
147.75
21
-44.25
0
LINE
8
0
10
166.75
20
-104.25
11
185.25
21
-104.25
0
LINE
8
0
10
185.25
20
-104.25
11
185.25
21
-85.75
0
LINE
8
0
10
185.25
20
-85.75
11
166.75
21
-85.75
0
LINE
8
0
10
166.75
20
-85.75
11
166.75
21
-104.25
0
LINE
8
0
10
166.75
20
-85.25
11
185.25
21
-85.25
0
LINE
8
0
10
185.25
20
-85.25
11
185.25
21
-66.75
0
LINE
8
0
10
185.25
20
-66.75
11
166.75
21
-66.75
0
LINE
8
0
10
166.75
20
-66.75
11
166.75
21
-85.25
0
LINE
8
0
10
166.75
20
-66.25
11
185.25
21
-66.25
0
LINE
8
0
10
185.25
20
-66.25
11
185.25
21
-47.75
0
LINE
8
0
10
185.25
20
-47.75
11
166.75
21
-47.75
0
LINE
8
0
10
166.75
20
-47.75
11
166.75
21
-66.25
0
LINE
8
0
10
166.75
20
-47.25
11
185.25
21
-47.25
0
LINE
8
0
10
185.25
20
-47.25
11
185.25
21
-28.75
0
LINE
8
0
10
185.25
20
-28.75
11
166.75
21
-28.75
0
LINE
8
0
10
166.75
20
-28.75
11
166.75
21
-47.25
0
LINE
8
0
10
185.75
20
-107.25
11
204.25
21
-107.25
0
LINE
8
0
10
204.25
20
-107.25
11
204.25
21
-88.75
0
LINE
8
0
10
204.25
20
-88.75
11
185.75
21
-88.75
0
LINE
8
0
10
185.75
20
-88.75
11
185.75
21
-107.25
0
LINE
8
0
10
185.75
20
-88.25
11
204.25
21
-88.25
0
LINE
8
0
10
204.25
20
-88.25
11
204.25
21
-69.75
0
LINE
8
0
10
204.25
20
-69.75
11
185.75
21
-69.75
0
LINE
8
0
10
185.75
20
-69.75
11
185.75
21
-88.25
0
LINE
8
0
10
185.75
20
-69.25
11
204.25
21
-69.25
0
LINE
8
0
10
204.25
20
-69.25
11
204.25
21
-50.75
0
LINE
8
0
10
204.25
20
-50.75
11
185.75
21
-50.75
0
LINE
8
0
10
185.75
20
-50.75
11
185.75
21
-69.25
0
LINE
8
0
10
185.75
20
-50.25
11
204.25
21
-50.25
0
LINE
8
0
10
204.25
20
-50.25
11
204.25
21
-31.75
0
LINE
8
0
10
204.25
20
-31.75
11
185.75
21
-31.75
0
LINE
8
0
10
185.75
20
-31.75
11
185.75
21
-50.25
0
LINE
8
0
10
204.75
20
-111.75
11
223.25
21
-111.75
0
LINE
8
0
10
223.25
20
-111.75
11
223.25
21
-93.25
0
LINE
8
0
10
223.25
20
-93.25
11
204.75
21
-93.25
0
LINE
8
0
10
204.75
20
-93.25
11
204.75
21
-111.75
0
LINE
8
0
10
204.75
20
-92.75
11
223.25
21
-92.75
0
LINE
8
0
10
223.25
20
-92.75
11
223.25
21
-74.25
0
LINE
8
0
10
223.25
20
-74.25
11
204.75
21
-74.25
0
LINE
8
0
10
204.75
20
-74.25
11
204.75
21
-92.75
0
LINE
8
0
10
204.75
20
-73.75
11
223.25
21
-73.75
0
LINE
8
0
10
223.25
20
-73.75
11
223.25
21
-55.25
0
LINE
8
0
10
223.25
20
-55.25
11
204.75
21
-55.25
0
LINE
8
0
10
204.75
20
-55.25
11
204.75
21
-73.75
0
LINE
8
0
10
204.75
20
-54.75
11
223.25
21
-54.75
0
LINE
8
0
10
223.25
20
-54.75
11
223.25
21
-36.25
0
LINE
8
0
10
223.25
20
-36.25
11
204.75
21
-36.25
0
LINE
8
0
10
204.75
20
-36.25
11
204.75
21
-54.75
0
LINE
8
0
10
143.25
20
-124.25
11
161.75
21
-124.25
0
LINE
8
0
10
161.75
20
-124.25
11
161.75
21
-105.75
0
LINE
8
0
10
161.75
20
-105.75
11
143.25
21
-105.75
0
LINE
8
0
10
143.25
20
-105.75
11
143.25
21
-124.25
0
LINE
8
0
10
162.2253571
20
-124.3144154
11
180.654959
21
-125.9267967
0
LINE
8
0
10
180.654959
20
-125.9267967
11
182.2673403
21
-107.4971948
0
LINE
8
0
10
182.2673403
20
-107.4971948
11
163.8377384
21
-105.8848135
0
LINE
8
0
10
163.8377384
20
-105.8848135
11
162.2253571
21
-124.3144154
0
LINE
8
0
10
181.1285864
20
-125.989151
11
199.3475299
21
-129.2016423
0
LINE
8
0
10
199.3475299
20
-129.2016423
11
202.5600212
21
-110.9826988
0
LINE
8
0
10
202.5600212
20
-110.9826988
11
184.3410777
21
-107.7702075
0
LINE
8
0
10
184.3410777
20
-107.7702075
11
181.1285864
21
-125.989151
0
LINE
8
0
10
199.7464763
20
-129.4247793
11
216.8993776
21
-136.3550012
0
LINE
8
0
10
216.8993776
20
-136.3550012
11
223.8295995
21
-119.2020999
0
LINE
8
0
10
223.8295995
20
-119.2020999
11
206.6766982
21
-112.271878
0
LINE
8
0
10
206.6766982
20
-112.271878
11
199.7464763
21
-129.4247793
0
ENDSEC
0
EOF