0
SECTION
2
HEADER
9
$INSUNITS
70
4
0
ENDSEC
0
SECTION
2
TABLES
0
TABLE
2
LTYPE
0
LTYPE
72
65
70
64
2
CONTINUOUS
3
______
73
0
40
0
0
ENDTAB
0
TABLE
2
LAYER
0
ENDTAB
0
ENDSEC
0
SECTION
2
ENTITIES
0
LINE
8
0
10
93
20
-107
11
107
21
-107
0
LINE
8
0
10
107
20
-107
11
107
21
-93
0
LINE
8
0
10
107
20
-93
11
93
21
-93
0
LINE
8
0
10
93
20
-93
11
93
21
-107
0
LINE
8
0
10
93
20
-88
11
107
21
-88
0
LINE
8
0
10
107
20
-88
11
107
21
-74
0
LINE
8
0
10
107
20
-74
11
93
21
-74
0
LINE
8
0
10
93
20
-74
11
93
21
-88
0
LINE
8
0
10
93
20
-69
11
107
21
-69
0
LINE
8
0
10
107
20
-69
11
107
21
-55
0
LINE
8
0
10
107
20
-55
11
93
21
-55
0
LINE
8
0
10
93
20
-55
11
93
21
-69
0
LINE
8
0
10
93
20
-50
11
107
21
-50
0
LINE
8
0
10
107
20
-50
11
107
21
-36
0
LINE
8
0
10
107
20
-36
11
93
21
-36
0
LINE
8
0
10
93
20
-36
11
93
21
-50
0
LINE
8
0
10
112
20
-107
11
126
21
-107
0
LINE
8
0
10
126
20
-107
11
126
21
-93
0
LINE
8
0
10
126
20
-93
11
112
21
-93
0
LINE
8
0
10
112
20
-93
11
112
21
-107
0
LINE
8
0
10
112
20
-88
11
126
21
-88
0
LINE
8
0
10
126
20
-88
11
126
21
-74
0
LINE
8
0
10
126
20
-74
11
112
21
-74
0
LINE
8
0
10
112
20
-74
11
112
21
-88
0
LINE
8
0
10
112
20
-69
11
126
21
-69
0
LINE
8
0
10
126
20
-69
11
126
21
-55
0
LINE
8
0
10
126
20
-55
11
112
21
-55
0
LINE
8
0
10
112
20
-55
11
112
21
-69
0
LINE
8
0
10
112
20
-50
11
126
21
-50
0
LINE
8
0
10
126
20
-50
11
126
21
-36
0
LINE
8
0
10
126
20
-36
11
112
21
-36
0
LINE
8
0
10
112
20
-36
11
112
21
-50
0
LINE
8
0
10
131
20
-102
11
145
21
-102
0
LINE
8
0
10
145
20
-102
11
145
21
-88
0
LINE
8
0
10
145
20
-88
11
131
21
-88
0
LINE
8
0
10
131
20
-88
11
131
21
-102
0
LINE
8
0
10
131
20
-83
11
145
21
-83
0
LINE
8
0
10
145
20
-83
11
145
21
-69
0
LINE
8
0
10
145
20
-69
11
131
21
-69
0
LINE
8
0
10
131
20
-69
11
131
21
-83
0
LINE
8
0
10
131
20
-64
11
145
21
-64
0
LINE
8
0
10
145
20
-64
11
145
21
-50
0
LINE
8
0
10
145
20
-50
11
131
21
-50
0
LINE
8
0
10
131
20
-50
11
131
21
-64
0
LINE
8
0
10
131
20
-45
11
145
21
-45
0
LINE
8
0
10
145
20
-45
11
145
21
-31
0
LINE
8
0
10
145
20
-31
11
131
21
-31
0
LINE
8
0
10
131
20
-31
11
131
21
-45
0
LINE
8
0
10
150
20
-99
11
164
21
-99
0
LINE
8
0
10
164
20
-99
11
164
21
-85
0
LINE
8
0
10
164
20
-85
11
150
21
-85
0
LINE
8
0
10
150
20
-85
11
150
21
-99
0
LINE
8
0
10
150
20
-80
11
164
21
-80
0
LINE
8
0
10
164
20
-80
11
164
21
-66
0
LINE
8
0
10
164
20
-66
11
150
21
-66
0
LINE
8
0
10
150
20
-66
11
150
21
-80
0
LINE
8
0
10
150
20
-61
11
164
21
-61
0
LINE
8
0
10
164
20
-61
11
164
21
-47
0
LINE
8
0
10
164
20
-47
11
150
21
-47
0
LINE
8
0
10
150
20
-47
11
150
21
-61
0
LINE
8
0
10
150
20
-42
11
164
21
-42
0
LINE
8
0
10
164
20
-42
11
164
21
-28
0
LINE
8
0
10
164
20
-28
11
150
21
-28
0
LINE
8
0
10
150
20
-28
11
150
21
-42
0
LINE
8
0
10
169
20
-102
11
183
21
-102
0
LINE
8
0
10
183
20
-102
11
183
21
-88
0
LINE
8
0
10
183
20
-88
11
169
21
-88
0
LINE
8
0
10
169
20
-88
11
169
21
-102
0
LINE
8
0
10
169
20
-83
11
183
21
-83
0
LINE
8
0
10
183
20
-83
11
183
21
-69
0
LINE
8
0
10
183
20
-69
11
169
21
-69
0
LINE
8
0
10
169
20
-69
11
169
21
-83
0
LINE
8
0
10
169
20
-64
11
183
21
-64
0
LINE
8
0
10
183
20
-64
11
183
21
-50
0
LINE
8
0
10
183
20
-50
11
169
21
-50
0
LINE
8
0
10
169
20
-50
11
169
21
-64
0
LINE
8
0
10
169
20
-45
11
183
21
-45
0
LINE
8
0
10
183
20
-45
11
183
21
-31
0
LINE
8
0
10
183
20
-31
11
169
21
-31
0
LINE
8
0
10
169
20
-31
11
169
21
-45
0
LINE
8
0
10
188
20
-105
11
202
21
-105
0
LINE
8
0
10
202
20
-105
11
202
21
-91
0
LINE
8
0
10
202
20
-91
11
188
21
-91
0
LINE
8
0
10
188
20
-91
11
188
21
-105
0
LINE
8
0
10
188
20
-86
11
202
21
-86
0
LINE
8
0
10
202
20
-86
11
202
21
-72
0
LINE
8
0
10
202
20
-72
11
188
21
-72
0
LINE
8
0
10
188
20
-72
11
188
21
-86
0
LINE
8
0
10
188
20
-67
11
202
21
-67
0
LINE
8
0
10
202
20
-67
11
202
21
-53
0
LINE
8
0
10
202
20
-53
11
188
21
-53
0
LINE
8
0
10
188
20
-53
11
188
21
-67
0
LINE
8
0
10
188
20
-48
11
202
21
-48
0
LINE
8
0
10
202
20
-48
11
202
21
-34
0
LINE
8
0
10
202
20
-34
11
188
21
-34
0
LINE
8
0
10
188
20
-34
11
188
21
-48
0
LINE
8
0
10
207
20
-109.5
11
221
21
-109.5
0
LINE
8
0
10
221
20
-109.5
11
221
21
-95.5
0
LINE
8
0
10
221
20
-95.5
11
207
21
-95.5
0
LINE
8
0
10
207
20
-95.5
11
207
21
-109.5
0
LINE
8
0
10
207
20
-90.5
11
221
21
-90.5
0
LINE
8
0
10
221
20
-90.5
11
221
21
-76.5
0
LINE
8
0
10
221
20
-76.5
11
207
21
-76.5
0
LINE
8
0
10
207
20
-76.5
11
207
21
-90.5
0
LINE
8
0
10
207
20
-71.5
11
221
21
-71.5
0
LINE
8
0
10
221
20
-71.5
11
221
21
-57.5
0
LINE
8
0
10
221
20
-57.5
11
207
21
-57.5
0
LINE
8
0
10
207
20
-57.5
11
207
21
-71.5
0
LINE
8
0
10
207
20
-52.5
11
221
21
-52.5
0
LINE
8
0
10
221
20
-52.5
11
221
21
-38.5
0
LINE
8
0
10
221
20
-38.5
11
207
21
-38.5
0
LINE
8
0
10
207
20
-38.5
11
207
21
-52.5
0
LINE
8
0
10
145.5
20
-122
11
159.5
21
-122
0
LINE
8
0
10
159.5
20
-122
11
159.5
21
-108
0
LINE
8
0
10
159.5
20
-108
11
145.5
21
-108
0
LINE
8
0
10
145.5
20
-108
11
145.5
21
-122
0
LINE
8
0
10
164.6628956
20
-122.2690778
11
178.6096214
21
-123.4892582
0
LINE
8
0
10
178.6096214
20
-123.4892582
11
179.8298018
21
-109.5425324
0
LINE
8
0
10
179.8298018
20
-109.5425324
11
165.883076
21
-108.322352
0
LINE
8
0
10
165.883076
20
-108.322352
11
164.6628956
21
-122.2690778
0
LINE
8
0
10
183.7351123
20
-124.1640419
11
197.5224208
21
-126.5951164
0
LINE
8
0
10
197.5224208
20
-126.5951164
11
199.9534953
21
-112.8078079
0
LINE
8
0
10
199.9534953
20
-112.8078079
11
186.1661868
21
-110.3767334
0
LINE
8
0
10
186.1661868
20
-110.3767334
11
183.7351123
21
-124.1640419
0
LINE
8
0
10
202.6755048
20
-128.1814804
11
215.6560787
21
-133.4259727
0
LINE
8
0
10
215.6560787
20
-133.4259727
11
220.900571
21
-120.4453988
0
LINE
8
0
10
220.900571
20
-120.4453988
11
207.9199971
21
-115.2009065
0
LINE
8
0
10
207.9199971
20
-115.2009065
11
202.6755048
21
-128.1814804
0
ENDSEC
0
EOF