0
SECTION
2
HEADER
9
$INSUNITS
70
4
0
ENDSEC
0
SECTION
2
TABLES
0
TABLE
2
LTYPE
0
LTYPE
72
65
70
64
2
CONTINUOUS
3
______
73
0
40
0
0
ENDTAB
0
TABLE
2
LAYER
0
ENDTAB
0
ENDSEC
0
SECTION
2
ENTITIES
0
LINE
8
0
10
90.975
20
-110.025
11
128.025
21
-110.025
0
LINE
8
0
10
89.975
20
-109.025
11
89.975
21
-33.975
0
LINE
8
0
10
90.975
20
-32.975
11
126.975
21
-32.975
0
LINE
8
0
10
129.025
20
-109.025
11
129.025
21
-106.025
0
LINE
8
0
10
130.025
20
-105.025
11
141.475
21
-105.025
0
LINE
8
0
10
128.975
20
-27.975
11
145.975
21
-27.975
0
LINE
8
0
10
127.975
20
-28.975
11
127.975
21
-31.975
0
LINE
8
0
10
167.025
20
-26.975
11
167.025
21
-25.975
0
LINE
8
0
10
166.025
20
-24.975
11
147.975
21
-24.975
0
LINE
8
0
10
146.975
20
-25.975
11
146.975
21
-26.975
0
LINE
8
0
10
186.025
20
-29.975
11
186.025
21
-28.975
0
LINE
8
0
10
168.025
20
-27.975
11
185.025
21
-27.975
0
LINE
8
0
10
205.025
20
-34.475
11
205.025
21
-31.975
0
LINE
8
0
10
187.025
20
-30.975
11
204.025
21
-30.975
0
LINE
8
0
10
214.5165884
20
-112.525
11
223.025
21
-112.525
0
LINE
8
0
10
224.025
20
-111.525
11
224.025
21
-36.475
0
LINE
8
0
10
206.025
20
-35.475
11
223.025
21
-35.475
0
LINE
8
0
10
143.475
20
-125.025
11
161.4115874
21
-125.025
0
LINE
8
0
10
142.475
20
-124.025
11
142.475
21
-106.025
0
LINE
8
0
10
161.4987431
20
-125.0288053
11
180.7483846
21
-126.7129308
0
LINE
8
0
10
180.834877
20
-126.7243177
11
198.757148
21
-129.8844976
0
LINE
8
0
10
198.9581064
20
-129.9421215
11
216.400441
21
-136.9892822
0
LINE
8
0
10
217.7022315
20
-136.4367049
11
224.4638805
21
-119.7010365
0
LINE
8
0
10
223.9113032
20
-118.399246
11
214.1419818
21
-114.4521839
0
ARC
8
0
10
128.025
20
-109.025
40
1
50
270
51
0
0
ARC
8
0
10
130.025
20
-106.025
40
1
50
90
51
180
0
ARC
8
0
10
141.475
20
-106.025
40
1
50
0
51
90
0
ARC
8
0
10
143.475
20
-124.025
40
1
50
180
51
270
0
ARC
8
0
10
161.4115874
20
-126.025
40
1
50
85.0000024
51
90
0
ARC
8
0
10
180.6612288
20
-127.7091255
40
1
50
79.9999992
51
84.9999967
0
ARC
8
0
10
198.5834998
20
-130.8693054
40
1
50
68.0000006
51
79.9999992
0
ARC
8
0
10
216.7750476
20
-136.0620983
40
1
50
248.0000006
51
338.0000006
0
ARC
8
0
10
223.5366966
20
-119.3264299
40
1
50
338.0000006
51
68.0000006
0
ARC
8
0
10
214.5165884
20
-113.525
40
1
50
90
51
248.0000006
0
ARC
8
0
10
223.025
20
-111.525
40
1
50
270
51
0
0
ARC
8
0
10
223.025
20
-36.475
40
1
50
0
51
90
0
ARC
8
0
10
206.025
20
-34.475
40
1
50
180
51
270
0
ARC
8
0
10
204.025
20
-31.975
40
1
50
0
51
90
0
ARC
8
0
10
187.025
20
-29.975
40
1
50
180
51
270
0
ARC
8
0
10
185.025
20
-28.975
40
1
50
0
51
90
0
ARC
8
0
10
168.025
20
-26.975
40
1
50
180
51
270
0
ARC
8
0
10
166.025
20
-25.975
40
1
50
0
51
90
0
ARC
8
0
10
147.975
20
-25.975
40
1
50
90
51
180
0
ARC
8
0
10
145.975
20
-26.975
40
1
50
270
51
0
0
ARC
8
0
10
128.975
20
-28.975
40
1
50
90
51
180
0
ARC
8
0
10
126.975
20
-31.975
40
1
50
270
51
0
0
ARC
8
0
10
90.975
20
-33.975
40
1
50
90
51
180
0
ARC
8
0
10
90.975
20
-109.025
40
1
50
180
51
270
0
ENDSEC
0
EOF