0
SECTION
2
HEADER
9
$INSUNITS
70
4
0
ENDSEC
0
SECTION
2
TABLES
0
TABLE
2
LTYPE
0
LTYPE
72
65
70
64
2
CONTINUOUS
3
______
73
0
40
0
0
ENDTAB
0
TABLE
2
LAYER
0
ENDTAB
0
ENDSEC
0
SECTION
2
ENTITIES
0
LINE
8
0
10
91
20
-110
11
128
21
-110
0
LINE
8
0
10
90
20
-109
11
90
21
-34
0
LINE
8
0
10
91
20
-33
11
127
21
-33
0
LINE
8
0
10
129
20
-109
11
129
21
-106
0
LINE
8
0
10
130
20
-105
11
141.5
21
-105
0
LINE
8
0
10
129
20
-28
11
146
21
-28
0
LINE
8
0
10
128
20
-29
11
128
21
-32
0
LINE
8
0
10
167
20
-27
11
167
21
-26
0
LINE
8
0
10
166
20
-25
11
148
21
-25
0
LINE
8
0
10
147
20
-26
11
147
21
-27
0
LINE
8
0
10
186
20
-30
11
186
21
-29
0
LINE
8
0
10
168
20
-28
11
185
21
-28
0
LINE
8
0
10
205
20
-34.5
11
205
21
-32
0
LINE
8
0
10
187
20
-31
11
204
21
-31
0
LINE
8
0
10
214.3879746
20
-112.5
11
223
21
-112.5
0
LINE
8
0
10
224
20
-111.5
11
224
21
-36.5
0
LINE
8
0
10
206
20
-35.5
11
223
21
-35.5
0
LINE
8
0
10
143.5
20
-125
11
161.4126782
21
-125
0
LINE
8
0
10
142.5
20
-124
11
142.5
21
-106
0
LINE
8
0
10
161.4998339
20
-125.0038053
11
180.7516493
21
-126.6881208
0
LINE
8
0
10
180.8381418
20
-126.6995077
11
198.7640766
21
-129.8603336
0
LINE
8
0
10
198.965035
20
-129.9179575
11
216.3866266
21
-136.9567375
0
LINE
8
0
10
217.6884171
20
-136.4041602
11
224.4313358
21
-119.7148509
0
LINE
8
0
10
223.8787585
20
-118.4130604
11
214.013368
21
-114.4271839
0
ARC
8
0
10
128
20
-109
40
1
50
270
51
0
0
ARC
8
0
10
130
20
-106
40
1
50
90
51
180
0
ARC
8
0
10
141.5
20
-106
40
1
50
0
51
90
0
ARC
8
0
10
143.5
20
-124
40
1
50
180
51
270
0
ARC
8
0
10
161.4126782
20
-126
40
1
50
85.0000024
51
90
0
ARC
8
0
10
180.6644936
20
-127.6843155
40
1
50
79.9999992
51
85.0000024
0
ARC
8
0
10
198.5904284
20
-130.8451414
40
1
50
68.0000006
51
79.9999992
0
ARC
8
0
10
216.7612332
20
-136.0295536
40
1
50
248.0000006
51
338.0000006
0
ARC
8
0
10
223.5041519
20
-119.3402443
40
1
50
338.0000006
51
68.0000006
0
ARC
8
0
10
214.3879746
20
-113.5
40
1
50
90
51
248.0000006
0
ARC
8
0
10
223
20
-111.5
40
1
50
270
51
0
0
ARC
8
0
10
223
20
-36.5
40
1
50
0
51
90
0
ARC
8
0
10
206
20
-34.5
40
1
50
180
51
270
0
ARC
8
0
10
204
20
-32
40
1
50
0
51
90
0
ARC
8
0
10
187
20
-30
40
1
50
180
51
270
0
ARC
8
0
10
185
20
-29
40
1
50
0
51
90
0
ARC
8
0
10
168
20
-27
40
1
50
180
51
270
0
ARC
8
0
10
166
20
-26
40
1
50
0
51
90
0
ARC
8
0
10
148
20
-26
40
1
50
90
51
180
0
ARC
8
0
10
146
20
-27
40
1
50
270
51
0
0
ARC
8
0
10
129
20
-29
40
1
50
90
51
180
0
ARC
8
0
10
127
20
-32
40
1
50
270
51
0
0
ARC
8
0
10
91
20
-34
40
1
50
90
51
180
0
ARC
8
0
10
91
20
-109
40
1
50
180
51
270
0
ENDSEC
0
EOF